<?xml version="1.0" standalone="no"?>
<!DOCTYPE svg PUBLIC "-//W3C//DTD SVG 20010904//EN"
 "http://www.w3.org/TR/2001/REC-SVG-20010904/DTD/svg10.dtd">
<svg version="1.0" xmlns="http://www.w3.org/2000/svg"
 width="600.000000pt" height="600.000000pt" viewBox="0 0 600.000000 600.000000"
 preserveAspectRatio="xMidYMid meet">

<g transform="translate(0.000000,600.000000) scale(0.100000,-0.100000)"
fill="#000000" stroke="none">
<path d="M2831 4524 c0 -11 3 -14 6 -6 3 7 2 16 -1 19 -3 4 -6 -2 -5 -13z"/>
<path d="M4500 4431 c0 -10 19 -25 25 -20 1 2 -3 10 -11 17 -8 7 -14 8 -14 3z"/>
<path d="M3247 4423 c-4 -3 -7 -11 -7 -17 0 -6 5 -5 12 2 6 6 9 14 7 17 -3 3
-9 2 -12 -2z"/>
<path d="M3200 4349 c0 -5 5 -7 10 -4 6 3 10 8 10 11 0 2 -4 4 -10 4 -5 0 -10
-5 -10 -11z"/>
<path d="M3850 4339 c0 -5 5 -7 10 -4 6 3 10 8 10 11 0 2 -4 4 -10 4 -5 0 -10
-5 -10 -11z"/>
<path d="M3995 4340 c3 -5 8 -10 11 -10 2 0 4 5 4 10 0 6 -5 10 -11 10 -5 0
-7 -4 -4 -10z"/>
<path d="M3045 4329 c-4 -6 -5 -12 -2 -15 2 -3 7 2 10 11 7 17 1 20 -8 4z"/>
<path d="M3370 4330 c0 -5 5 -10 10 -10 6 0 10 5 10 10 0 6 -4 10 -10 10 -5 0
-10 -4 -10 -10z"/>
<path d="M2821 4311 c-8 -15 -7 -20 5 -25 12 -4 15 -2 10 9 -3 9 0 15 9 15 8
0 15 5 15 10 0 17 -29 11 -39 -9z"/>
<path d="M3577 4319 c7 -7 15 -10 18 -7 3 3 -2 9 -12 12 -14 6 -15 5 -6 -5z"/>
<path d="M2670 4310 c0 -5 5 -10 10 -10 6 0 10 5 10 10 0 6 -4 10 -10 10 -5 0
-10 -4 -10 -10z"/>
<path d="M2570 4290 c0 -5 5 -10 10 -10 6 0 10 5 10 10 0 6 -4 10 -10 10 -5 0
-10 -4 -10 -10z"/>
<path d="M2295 4280 c3 -5 8 -10 11 -10 2 0 4 5 4 10 0 6 -5 10 -11 10 -5 0
-7 -4 -4 -10z"/>
<path d="M2460 4280 c0 -5 5 -10 10 -10 6 0 10 5 10 10 0 6 -4 10 -10 10 -5 0
-10 -4 -10 -10z"/>
<path d="M3021 4258 c-12 -34 -5 -53 10 -26 5 9 16 24 24 32 20 19 19 26 -4
26 -12 0 -23 -11 -30 -32z"/>
<path d="M3500 4280 c-8 -5 -11 -12 -7 -16 4 -4 15 0 24 9 18 18 8 23 -17 7z"/>
<path d="M2737 4266 c-6 -16 2 -28 14 -20 12 7 11 34 0 34 -5 0 -11 -6 -14
-14z"/>
<path d="M3233 4264 c-7 -7 -13 -15 -13 -18 0 -9 34 1 37 11 6 18 -11 22 -24
7z"/>
<path d="M2530 4245 c0 -16 27 -32 37 -21 7 7 -16 36 -28 36 -5 0 -9 -7 -9
-15z"/>
<path d="M3566 4245 c-24 -18 -18 -26 12 -18 12 3 22 12 22 19 0 18 -10 17
-34 -1z"/>
<path d="M2390 4242 c0 -15 25 -62 33 -62 10 0 9 18 -3 25 -5 3 -10 15 -10 26
0 10 -4 19 -10 19 -5 0 -10 -4 -10 -8z"/>
<path d="M2837 4231 c-3 -11 2 -26 10 -32 12 -11 13 -8 7 17 -9 37 -10 39 -17
15z"/>
<path d="M2930 4246 c0 -2 7 -9 15 -16 13 -11 14 -10 9 4 -5 14 -24 23 -24 12z"/>
<path d="M3107 4244 c-9 -10 4 -34 19 -34 8 0 14 3 14 6 0 10 -27 33 -33 28z"/>
<path d="M3170 4246 c0 -2 9 -6 20 -9 11 -3 18 -1 14 4 -5 9 -34 13 -34 5z"/>
<path d="M3040 4230 c0 -5 5 -10 10 -10 6 0 10 5 10 10 0 6 -4 10 -10 10 -5 0
-10 -4 -10 -10z"/>
<path d="M3785 4230 c3 -5 8 -10 11 -10 2 0 4 5 4 10 0 6 -5 10 -11 10 -5 0
-7 -4 -4 -10z"/>
<path d="M2728 4209 c-14 -15 -14 -18 -2 -23 8 -3 17 1 20 9 10 24 0 32 -18
14z"/>
<path d="M3395 4220 c3 -5 8 -10 11 -10 2 0 4 5 4 10 0 6 -5 10 -11 10 -5 0
-7 -4 -4 -10z"/>
<path d="M2280 4212 c0 -11 30 -72 35 -72 5 0 -1 42 -10 63 -7 17 -25 24 -25
9z"/>
<path d="M2480 4208 c0 -4 9 -8 21 -8 11 0 17 -4 14 -10 -3 -5 -2 -10 3 -10 8
0 22 22 22 36 0 2 -13 3 -30 2 -16 -1 -30 -6 -30 -10z"/>
<path d="M3205 4205 c-3 -8 -7 -21 -9 -29 -3 -8 1 -16 8 -19 8 -3 12 6 13 29
1 36 -4 44 -12 19z"/>
<path d="M3565 4193 l-18 -27 -18 22 c-10 13 -20 18 -23 13 -3 -5 1 -12 10
-15 10 -4 13 -13 9 -26 -5 -16 -2 -20 14 -20 12 0 21 -7 21 -15 0 -8 7 -15 15
-15 17 0 19 9 6 29 -5 8 -5 27 0 44 11 40 6 44 -16 10z"/>
<path d="M2055 4190 c3 -5 8 -10 11 -10 2 0 4 5 4 10 0 6 -5 10 -11 10 -5 0
-7 -4 -4 -10z"/>
<path d="M2210 4189 c0 -5 5 -7 10 -4 6 3 10 8 10 11 0 2 -4 4 -10 4 -5 0 -10
-5 -10 -11z"/>
<path d="M3812 4180 c7 -11 16 -20 19 -20 4 0 5 9 2 20 -3 11 -12 20 -19 20
-12 0 -12 -4 -2 -20z"/>
<path d="M4370 4190 c-8 -5 -10 -10 -5 -10 6 0 17 5 25 10 8 5 11 10 5 10 -5
0 -17 -5 -25 -10z"/>
<path d="M1971 4174 c0 -11 3 -14 6 -6 3 7 2 16 -1 19 -3 4 -6 -2 -5 -13z"/>
<path d="M3096 4171 c-4 -7 -5 -15 -2 -18 9 -9 19 4 14 18 -4 11 -6 11 -12 0z"/>
<path d="M3731 4170 c-1 -18 16 -46 23 -40 2 3 -2 16 -9 30 -8 15 -14 19 -14
10z"/>
<path d="M2880 4160 c-12 -8 -11 -10 6 -10 27 0 36 -10 23 -26 -7 -8 -7 -14 1
-19 14 -9 25 25 13 43 -12 21 -25 24 -43 12z"/>
<path d="M3400 4155 c0 -10 7 -15 18 -13 21 4 19 22 -2 26 -10 2 -16 -3 -16
-13z"/>
<path d="M3901 4154 c0 -11 3 -14 6 -6 3 7 2 16 -1 19 -3 4 -6 -2 -5 -13z"/>
<path d="M2470 4153 c-19 -8 -60 -51 -60 -64 0 -18 18 -9 36 19 9 15 25 32 33
39 17 13 15 15 -9 6z"/>
<path d="M2591 4143 c-7 -8 -11 -16 -8 -19 2 -2 10 2 17 11 17 20 9 27 -9 8z"/>
<path d="M4710 4145 c0 -8 4 -15 10 -15 5 0 7 7 4 15 -4 8 -8 15 -10 15 -2 0
-4 -7 -4 -15z"/>
<path d="M3141 4146 c2 -2 14 -9 27 -15 18 -10 22 -9 22 4 0 10 -9 15 -27 15
-14 0 -24 -2 -22 -4z"/>
<path d="M2154 4096 c6 -38 4 -46 -13 -55 -27 -15 -31 -14 -31 9 0 10 8 24 18
29 9 6 11 11 5 11 -7 0 -24 -10 -37 -21 -25 -21 -25 -21 -5 -43 14 -14 19 -32
17 -55 -2 -21 2 -36 10 -39 9 -3 11 3 6 22 -10 42 2 70 37 83 33 13 54 9 44
-8 -4 -5 -2 -9 4 -9 6 0 15 -9 21 -21 9 -16 8 -24 -4 -38 -15 -16 -15 -19 2
-34 17 -15 18 -15 17 11 0 16 5 26 12 25 13 -3 8 22 -10 44 -5 7 -6 25 -2 40
6 26 6 27 -12 10 -18 -16 -21 -16 -41 3 -13 13 -22 33 -22 50 0 17 -5 30 -11
30 -8 0 -9 -14 -5 -44z"/>
<path d="M2660 4126 c0 -24 15 -26 28 -5 11 16 9 19 -8 19 -11 0 -20 -6 -20
-14z"/>
<path d="M3027 4115 c3 -14 10 -25 15 -25 6 0 8 -7 5 -14 -4 -10 -1 -13 9 -9
16 6 19 23 5 23 -5 0 -11 10 -13 22 -2 12 -8 23 -14 25 -7 2 -10 -6 -7 -22z"/>
<path d="M3305 4119 c-4 -12 -2 -26 5 -33 10 -8 12 -7 7 7 -4 9 -2 17 3 17 6
0 10 7 10 15 0 22 -18 18 -25 -6z"/>
<path d="M2282 4100 c-9 -15 -7 -19 19 -22 34 -5 37 1 11 23 -17 15 -20 15
-30 -1z"/>
<path d="M2940 4111 c0 -5 7 -11 15 -15 8 -3 15 -10 15 -15 0 -16 -28 -20 -59
-8 -34 13 -36 12 -45 -23 -6 -23 -6 -23 7 -7 16 19 42 23 52 7 4 -6 11 -8 16
-5 5 4 9 -2 10 -12 0 -14 3 -12 10 6 5 13 17 30 26 36 15 11 15 13 -5 19 -12
4 -22 12 -22 17 0 5 -4 9 -10 9 -5 0 -10 -4 -10 -9z"/>
<path d="M3670 4105 c0 -8 2 -15 4 -15 2 0 6 7 10 15 3 8 1 15 -4 15 -6 0 -10
-7 -10 -15z"/>
<path d="M2640 4102 c0 -6 6 -13 13 -15 7 -3 5 -6 -5 -6 -10 -1 -18 -6 -18
-12 0 -6 6 -9 14 -6 20 8 36 -13 36 -45 0 -15 5 -28 12 -28 6 0 3 -7 -8 -16
-18 -15 -18 -15 4 -9 15 4 24 1 28 -9 3 -9 14 -16 24 -16 10 0 21 -8 23 -17 4
-14 5 -13 6 3 1 15 -6 24 -24 28 -20 5 -25 13 -25 36 0 17 -5 30 -11 30 -5 0
-16 15 -24 33 -14 35 -45 68 -45 49z"/>
<path d="M2750 4088 c0 -19 2 -20 10 -8 13 19 13 30 0 30 -5 0 -10 -10 -10
-22z"/>
<path d="M3207 4103 c-13 -13 -7 -21 13 -16 11 3 20 9 20 14 0 10 -24 12 -33
2z"/>
<path d="M2476 4085 c-8 -8 -23 -15 -32 -15 -13 0 -15 -3 -7 -11 8 -8 18 -6
37 6 14 10 26 21 26 26 0 13 -6 11 -24 -6z"/>
<path d="M3370 4087 c0 -10 7 -20 16 -24 12 -4 13 -7 3 -14 -8 -4 -11 -11 -7
-14 8 -9 39 25 32 36 -3 5 -9 7 -14 4 -5 -3 -13 3 -19 12 -10 17 -10 17 -11 0z"/>
<path d="M3850 4084 c0 -8 5 -12 10 -9 6 3 10 10 10 16 0 5 -4 9 -10 9 -5 0
-10 -7 -10 -16z"/>
<path d="M2526 4065 c4 -8 11 -15 16 -15 6 0 5 6 -2 15 -7 8 -14 15 -16 15 -2
0 -1 -7 2 -15z"/>
<path d="M3924 4057 c-8 -21 2 -35 16 -21 5 5 6 15 0 24 -8 12 -10 12 -16 -3z"/>
<path d="M3645 4050 c-3 -5 1 -10 9 -10 9 0 16 5 16 10 0 6 -4 10 -9 10 -6 0
-13 -4 -16 -10z"/>
<path d="M3040 4040 c0 -7 24 -20 36 -20 13 0 1 19 -16 23 -11 3 -20 2 -20 -3z"/>
<path d="M3170 4024 c-14 -35 -13 -36 10 -17 21 19 27 43 10 43 -6 0 -15 -12
-20 -26z"/>
<path d="M2581 4027 c-6 -8 -8 -16 -5 -19 10 -10 44 4 44 18 0 18 -24 18 -39
1z"/>
<path d="M2780 4030 c0 -5 5 -10 10 -10 6 0 10 5 10 10 0 6 -4 10 -10 10 -5 0
-10 -4 -10 -10z"/>
<path d="M3800 4030 c0 -5 5 -10 10 -10 6 0 10 5 10 10 0 6 -4 10 -10 10 -5 0
-10 -4 -10 -10z"/>
<path d="M3601 4014 c0 -11 3 -14 6 -6 3 7 2 16 -1 19 -3 4 -6 -2 -5 -13z"/>
<path d="M3090 4011 c0 -5 5 -13 10 -16 6 -3 10 -2 10 4 0 5 -4 13 -10 16 -5
3 -10 2 -10 -4z"/>
<path d="M4250 4013 c0 -6 -3 -18 -6 -27 -3 -9 -2 -16 4 -16 15 0 21 25 11 41
-5 9 -9 9 -9 2z"/>
<path d="M4356 4005 c-9 -26 -7 -32 5 -12 6 10 9 21 6 23 -2 3 -7 -2 -11 -11z"/>
<path d="M4380 4005 c0 -8 2 -15 4 -15 2 0 6 7 10 15 3 8 1 15 -4 15 -6 0 -10
-7 -10 -15z"/>
<path d="M2547 4003 c-4 -3 -7 -11 -7 -17 0 -6 5 -5 12 2 6 6 9 14 7 17 -3 3
-9 2 -12 -2z"/>
<path d="M2970 4000 c0 -5 7 -10 15 -10 8 0 15 5 15 10 0 6 -7 10 -15 10 -8 0
-15 -4 -15 -10z"/>
<path d="M3530 3994 c0 -9 5 -14 12 -12 18 6 21 28 4 28 -9 0 -16 -7 -16 -16z"/>
<path d="M4075 4000 c-3 -5 -1 -10 4 -10 6 0 11 5 11 10 0 6 -2 10 -4 10 -3 0
-8 -4 -11 -10z"/>
<path d="M2350 3990 c0 -5 5 -10 11 -10 5 0 7 5 4 10 -3 6 -8 10 -11 10 -2 0
-4 -4 -4 -10z"/>
<path d="M2787 3979 c-7 -28 -7 -28 16 -20 15 6 16 9 4 25 -13 18 -14 18 -20
-5z"/>
<path d="M3824 3970 c1 -16 5 -29 10 -27 14 5 14 57 0 57 -6 0 -11 -13 -10
-30z"/>
<path d="M2006 3968 c-8 -33 -7 -40 5 -36 14 5 22 58 9 58 -4 0 -10 -10 -14
-22z"/>
<path d="M2450 3980 c0 -7 -8 -19 -17 -27 -16 -13 -15 -13 13 -8 27 5 32 3 37
-17 5 -16 9 -20 17 -12 8 8 2 20 -20 44 -16 17 -30 27 -30 20z"/>
<path d="M3367 3983 c-4 -3 -7 -12 -7 -20 0 -11 4 -11 20 -1 11 7 20 16 20 20
0 10 -24 10 -33 1z"/>
<path d="M3471 3984 c-1 -18 26 -37 34 -24 3 5 0 10 -9 10 -8 0 -17 6 -19 13
-4 7 -6 8 -6 1z"/>
<path d="M2150 3960 c0 -11 5 -20 10 -20 6 0 10 9 10 20 0 11 -4 20 -10 20 -5
0 -10 -9 -10 -20z"/>
<path d="M3000 3966 c0 -9 5 -16 10 -16 6 0 10 4 10 9 0 6 -4 13 -10 16 -5 3
-10 -1 -10 -9z"/>
<path d="M3160 3960 c0 -11 5 -20 10 -20 6 0 10 9 10 20 0 11 -4 20 -10 20 -5
0 -10 -9 -10 -20z"/>
<path d="M2925 3950 c9 -10 14 -24 10 -29 -3 -6 1 -11 9 -11 26 0 18 34 -10
47 -26 12 -26 12 -9 -7z"/>
<path d="M3261 3957 c-6 -6 -11 -20 -11 -31 1 -21 1 -21 16 -1 8 11 18 19 22
17 3 -2 8 1 10 6 5 15 -24 22 -37 9z"/>
<path d="M3727 3956 c-4 -10 0 -12 14 -9 10 3 16 9 13 14 -8 13 -21 11 -27 -5z"/>
<path d="M4070 3959 c0 -5 5 -7 10 -4 6 3 10 8 10 11 0 2 -4 4 -10 4 -5 0 -10
-5 -10 -11z"/>
<path d="M2348 3940 c-18 -21 -13 -26 11 -11 7 5 12 14 10 20 -3 7 -11 3 -21
-9z"/>
<path d="M2560 3950 c0 -5 5 -10 10 -10 6 0 10 5 10 10 0 6 -4 10 -10 10 -5 0
-10 -4 -10 -10z"/>
<path d="M3645 3950 c-3 -5 -2 -10 4 -10 5 0 13 5 16 10 3 6 2 10 -4 10 -5 0
-13 -4 -16 -10z"/>
<path d="M4730 3950 c0 -5 5 -10 10 -10 6 0 10 -9 10 -20 0 -11 5 -20 10 -20
14 0 12 22 -4 43 -15 19 -26 22 -26 7z"/>
<path d="M2630 3941 c0 -6 5 -13 10 -16 6 -3 10 1 10 9 0 9 -4 16 -10 16 -5 0
-10 -4 -10 -9z"/>
<path d="M2857 3943 c-4 -3 -7 -13 -7 -22 1 -13 3 -13 11 2 11 19 8 33 -4 20z"/>
<path d="M1612 3915 c0 -16 2 -22 5 -12 2 9 2 23 0 30 -3 6 -5 -1 -5 -18z"/>
<path d="M3177 3920 c-12 -14 -13 -20 -4 -20 14 0 37 20 37 32 0 14 -15 9 -33
-12z"/>
<path d="M3980 3930 c0 -5 4 -10 9 -10 6 0 13 5 16 10 3 6 -1 10 -9 10 -9 0
-16 -4 -16 -10z"/>
<path d="M1521 3914 c0 -11 3 -14 6 -6 3 7 2 16 -1 19 -3 4 -6 -2 -5 -13z"/>
<path d="M1840 3919 c0 -5 5 -7 10 -4 6 3 10 8 10 11 0 2 -4 4 -10 4 -5 0 -10
-5 -10 -11z"/>
<path d="M1970 3921 c0 -6 5 -13 10 -16 6 -3 10 1 10 9 0 9 -4 16 -10 16 -5 0
-10 -4 -10 -9z"/>
<path d="M2115 3910 c3 -5 14 -10 23 -10 15 0 15 2 2 10 -20 13 -33 13 -25 0z"/>
<path d="M2380 3911 c0 -6 5 -11 10 -11 7 0 7 -7 0 -21 -13 -24 -4 -41 10 -19
14 21 12 36 -5 50 -10 9 -15 9 -15 1z"/>
<path d="M3005 3910 c-3 -5 3 -10 15 -10 12 0 18 5 15 10 -3 6 -10 10 -15 10
-5 0 -12 -4 -15 -10z"/>
<path d="M4232 3908 c-16 -16 -15 -28 1 -28 8 0 19 -10 26 -22 11 -23 11 -23
6 2 -2 14 -5 33 -5 43 0 20 -11 22 -28 5z"/>
<path d="M1885 3900 c3 -5 11 -10 16 -10 6 0 7 5 4 10 -3 6 -11 10 -16 10 -6
0 -7 -4 -4 -10z"/>
<path d="M2590 3900 c0 -5 5 -10 10 -10 6 0 10 5 10 10 0 6 -4 10 -10 10 -5 0
-10 -4 -10 -10z"/>
<path d="M2635 3900 c4 -6 11 -8 16 -5 14 9 11 15 -7 15 -8 0 -12 -5 -9 -10z"/>
<path d="M3402 3893 c-19 -8 -3 -23 25 -23 21 0 24 2 13 15 -13 16 -17 17 -38
8z"/>
<path d="M3525 3889 c-4 -6 0 -18 9 -27 15 -15 16 -15 16 5 0 25 -15 38 -25
22z"/>
<path d="M4050 3890 c0 -5 7 -10 15 -10 8 0 15 5 15 10 0 6 -7 10 -15 10 -8 0
-15 -4 -15 -10z"/>
<path d="M1720 3881 c0 -6 5 -13 10 -16 6 -3 10 1 10 9 0 9 -4 16 -10 16 -5 0
-10 -4 -10 -9z"/>
<path d="M2900 3885 c0 -15 18 -40 24 -34 3 3 -1 14 -9 25 -8 10 -14 15 -15 9z"/>
<path d="M1530 3869 c0 -5 5 -7 10 -4 6 3 10 8 10 11 0 2 -4 4 -10 4 -5 0 -10
-5 -10 -11z"/>
<path d="M2037 3833 c-5 -46 -3 -62 8 -52 2 3 6 15 8 27 2 12 6 25 10 28 12
13 7 44 -7 44 -9 0 -15 -17 -19 -47z"/>
<path d="M2161 3864 c0 -11 3 -14 6 -6 3 7 2 16 -1 19 -3 4 -6 -2 -5 -13z"/>
<path d="M2271 3864 c-7 -8 -19 -13 -27 -10 -8 3 -14 1 -14 -4 0 -6 7 -10 16
-10 21 0 54 18 54 30 0 14 -13 11 -29 -6z"/>
<path d="M2515 3870 c-3 -5 -1 -10 4 -10 6 0 11 5 11 10 0 6 -2 10 -4 10 -3 0
-8 -4 -11 -10z"/>
<path d="M4155 3870 c-3 -5 -1 -10 4 -10 6 0 11 5 11 10 0 6 -2 10 -4 10 -3 0
-8 -4 -11 -10z"/>
<path d="M1980 3860 c0 -5 5 -10 11 -10 5 0 7 5 4 10 -3 6 -8 10 -11 10 -2 0
-4 -4 -4 -10z"/>
<path d="M2540 3840 c0 -11 5 -20 10 -20 6 0 10 5 10 11 0 6 9 1 20 -12 10
-13 19 -18 20 -11 0 14 -36 52 -50 52 -5 0 -10 -9 -10 -20z"/>
<path d="M1820 3834 c0 -8 10 -14 26 -14 28 0 25 15 -6 23 -13 3 -20 0 -20 -9z"/>
<path d="M1926 3823 c3 -65 5 -73 18 -73 18 0 26 13 36 56 6 27 5 34 -7 34
-10 0 -14 -7 -10 -20 6 -25 -20 -50 -29 -27 -3 9 -1 25 6 36 8 16 8 21 -2 21
-9 0 -13 -11 -12 -27z"/>
<path d="M2705 3841 c-3 -5 -1 -12 5 -16 5 -3 10 1 10 9 0 18 -6 21 -15 7z"/>
<path d="M2818 3838 c-4 -12 14 -38 27 -38 4 0 5 10 3 22 -3 24 -24 35 -30 16z"/>
<path d="M2953 3819 c8 -21 13 -26 15 -14 5 21 -5 45 -17 45 -5 0 -4 -13 2
-31z"/>
<path d="M3020 3830 c-8 -5 -10 -10 -5 -10 6 0 17 5 25 10 8 5 11 10 5 10 -5
0 -17 -5 -25 -10z"/>
<path d="M4175 3830 c-3 -5 -1 -10 4 -10 6 0 11 5 11 10 0 6 -2 10 -4 10 -3 0
-8 -4 -11 -10z"/>
<path d="M2140 3820 c-12 -8 -9 -9 12 -8 15 1 24 6 22 10 -7 10 -16 10 -34 -2z"/>
<path d="M2875 3820 c-3 -5 -1 -10 4 -10 6 0 11 5 11 10 0 6 -2 10 -4 10 -3 0
-8 -4 -11 -10z"/>
<path d="M3178 3816 c-11 -8 -14 -17 -8 -27 8 -12 12 -11 27 3 22 22 6 43 -19
24z"/>
<path d="M3433 3815 c-9 -24 1 -27 15 -5 8 13 8 20 2 20 -6 0 -13 -7 -17 -15z"/>
<path d="M3790 3820 c0 -5 5 -10 11 -10 5 0 7 5 4 10 -3 6 -8 10 -11 10 -2 0
-4 -4 -4 -10z"/>
<path d="M4415 3820 c-3 -5 -1 -10 4 -10 6 0 11 5 11 10 0 6 -2 10 -4 10 -3 0
-8 -4 -11 -10z"/>
<path d="M1605 3810 c-4 -6 3 -10 15 -10 12 0 24 -9 29 -22 4 -12 10 -17 13
-12 8 12 -12 38 -34 47 -10 3 -20 2 -23 -3z"/>
<path d="M1724 3804 c11 -8 23 -19 26 -24 4 -7 12 -5 21 6 12 16 12 17 -3 11
-9 -3 -18 -1 -20 5 -2 6 -13 12 -24 14 -19 3 -19 3 0 -12z"/>
<path d="M2251 3804 c0 -11 3 -14 6 -6 3 7 2 16 -1 19 -3 4 -6 -2 -5 -13z"/>
<path d="M2400 3805 c0 -8 -6 -15 -14 -15 -14 0 -28 -48 -19 -63 2 -4 14 -5
26 -2 15 4 18 3 9 -3 -10 -7 -10 -11 3 -22 8 -7 15 -22 15 -35 0 -24 9 -37 21
-30 4 3 4 19 -1 35 -5 18 -5 32 1 36 5 3 -2 15 -16 26 -28 22 -33 53 -9 62 8
3 12 10 9 16 -9 15 -25 12 -25 -5z"/>
<path d="M2472 3800 c7 -11 17 -20 22 -20 5 0 1 9 -9 20 -10 11 -20 20 -22 20
-2 0 2 -9 9 -20z"/>
<path d="M3095 3810 c3 -5 8 -10 11 -10 2 0 4 5 4 10 0 6 -5 10 -11 10 -5 0
-7 -4 -4 -10z"/>
<path d="M3596 3812 c-3 -6 -1 -14 5 -17 14 -9 20 -2 10 14 -6 8 -11 9 -15 3z"/>
<path d="M1880 3795 c-7 -8 -16 -12 -21 -9 -5 3 -9 -2 -9 -10 0 -9 3 -16 8
-16 10 0 45 41 39 46 -2 3 -10 -2 -17 -11z"/>
<path d="M2116 3792 c-4 -6 -4 -17 -1 -23 4 -6 7 -26 7 -45 0 -19 4 -34 9 -34
5 0 9 9 9 20 0 11 8 24 17 27 15 6 15 7 -2 13 -11 4 -22 18 -25 31 -4 16 -8
20 -14 11z"/>
<path d="M3957 3793 c-10 -16 11 -39 23 -27 8 8 7 14 -4 23 -8 7 -17 8 -19 4z"/>
<path d="M4105 3790 c4 -6 11 -8 16 -5 14 9 11 15 -7 15 -8 0 -12 -5 -9 -10z"/>
<path d="M2280 3782 c0 -19 12 -42 22 -42 14 0 5 43 -9 48 -7 2 -13 -1 -13 -6z"/>
<path d="M2692 3765 c0 -16 2 -22 5 -12 2 9 2 23 0 30 -3 6 -5 -1 -5 -18z"/>
<path d="M3024 3774 c9 -8 16 -23 16 -32 0 -9 7 -26 15 -36 14 -19 15 -18 21
12 4 18 12 32 19 32 7 0 15 6 18 14 4 11 -3 13 -33 10 -21 -3 -41 0 -45 6 -3
5 -11 10 -16 10 -6 0 -3 -7 5 -16z"/>
<path d="M3565 3780 c-3 -5 -1 -10 4 -10 6 0 11 5 11 10 0 6 -2 10 -4 10 -3 0
-8 -4 -11 -10z"/>
<path d="M2230 3769 c0 -5 5 -7 10 -4 6 3 10 8 10 11 0 2 -4 4 -10 4 -5 0 -10
-5 -10 -11z"/>
<path d="M2742 3765 c2 -11 -1 -25 -4 -31 -4 -6 -1 -11 7 -11 17 0 18 12 4 42
l-9 20 2 -20z"/>
<path d="M3430 3769 c0 -5 5 -7 10 -4 6 3 10 8 10 11 0 2 -4 4 -10 4 -5 0 -10
-5 -10 -11z"/>
<path d="M3705 3766 c-3 -9 -7 -23 -10 -31 -2 -8 0 -15 5 -15 11 0 25 48 16
57 -3 3 -8 -2 -11 -11z"/>
<path d="M1310 3760 c0 -5 5 -10 11 -10 5 0 7 5 4 10 -3 6 -8 10 -11 10 -2 0
-4 -4 -4 -10z"/>
<path d="M2580 3761 c0 -6 4 -13 10 -16 6 -3 7 1 4 9 -7 18 -14 21 -14 7z"/>
<path d="M3498 3758 c9 -9 15 -9 24 0 9 9 7 12 -12 12 -19 0 -21 -3 -12 -12z"/>
<path d="M1544 3734 c4 -16 8 -39 8 -51 0 -12 7 -24 15 -28 12 -4 14 0 10 15
-3 11 -1 20 4 20 5 0 9 5 9 10 0 6 -7 10 -15 10 -8 0 -15 9 -15 19 0 11 -5 23
-11 27 -9 5 -10 -1 -5 -22z"/>
<path d="M1745 3751 c-6 -11 9 -23 19 -14 9 9 7 23 -3 23 -6 0 -12 -4 -16 -9z"/>
<path d="M2812 3730 c-16 -26 -15 -30 6 -27 24 4 27 9 16 29 -9 16 -10 16 -22
-2z"/>
<path d="M2886 3735 c4 -8 10 -15 14 -15 4 0 13 7 20 15 11 13 8 15 -13 15
-19 0 -25 -4 -21 -15z"/>
<path d="M3908 3729 c-10 -10 -18 -21 -18 -24 0 -9 49 29 50 38 0 12 -14 6
-32 -14z"/>
<path d="M4121 3747 c2 -1 14 -10 25 -20 19 -16 22 -16 28 -2 3 9 2 13 -3 10
-5 -3 -12 -1 -16 5 -3 5 -13 10 -22 10 -9 0 -14 -1 -12 -3z"/>
<path d="M1880 3730 c0 -5 7 -10 15 -10 8 0 15 5 15 10 0 6 -7 10 -15 10 -8 0
-15 -4 -15 -10z"/>
<path d="M2059 3735 c-1 -6 -1 -13 0 -17 0 -5 -3 -8 -8 -8 -12 0 -9 -53 4 -62
22 -17 32 -7 31 32 -1 34 -24 80 -27 55z"/>
<path d="M2520 3713 c1 -27 1 -27 15 -9 19 25 19 36 0 36 -10 0 -15 -10 -15
-27z"/>
<path d="M3130 3729 c0 -4 7 -12 15 -19 8 -7 15 -9 15 -5 0 4 7 2 15 -5 9 -7
19 -9 23 -5 4 4 1 10 -5 12 -7 3 -13 11 -13 18 0 7 -10 12 -25 11 -14 0 -25
-4 -25 -7z"/>
<path d="M1616 3714 c-9 -24 -7 -28 9 -14 17 14 20 30 6 30 -5 0 -12 -7 -15
-16z"/>
<path d="M3586 3714 c-8 -22 -7 -34 3 -34 5 0 11 11 13 25 6 28 -6 34 -16 9z"/>
<path d="M1815 3710 c-3 -5 -1 -10 4 -10 6 0 11 5 11 10 0 6 -2 10 -4 10 -3 0
-8 -4 -11 -10z"/>
<path d="M1360 3707 c0 -1 -4 -17 -9 -35 -6 -20 -6 -30 0 -27 5 4 9 11 9 17 0
6 7 16 16 23 16 11 16 12 0 18 -9 4 -16 5 -16 4z"/>
<path d="M2245 3699 c-4 -6 -3 -15 3 -21 6 -6 11 -4 15 6 7 18 -9 31 -18 15z"/>
<path d="M2715 3697 c-9 -22 18 -57 29 -38 4 6 3 11 -3 11 -5 0 -11 10 -14 23
-3 20 -4 20 -12 4z"/>
<path d="M3330 3700 c0 -5 7 -10 15 -10 8 0 15 5 15 10 0 6 -7 10 -15 10 -8 0
-15 -4 -15 -10z"/>
<path d="M3630 3695 c0 -8 5 -15 10 -15 6 0 10 7 10 15 0 8 -4 15 -10 15 -5 0
-10 -7 -10 -15z"/>
<path d="M3964 3694 c3 -9 6 -18 6 -20 0 -2 7 -4 15 -4 19 0 19 7 1 26 -19 19
-30 18 -22 -2z"/>
<path d="M4205 3700 c3 -5 10 -10 16 -10 5 0 9 5 9 10 0 6 -7 10 -16 10 -8 0
-12 -4 -9 -10z"/>
<path d="M1687 3685 c-4 -8 -2 -17 3 -20 6 -4 10 3 10 14 0 25 -6 27 -13 6z"/>
<path d="M2630 3685 c-10 -12 -10 -15 4 -15 9 0 16 7 16 15 0 8 -2 15 -4 15
-2 0 -9 -7 -16 -15z"/>
<path d="M3486 3685 c4 -8 10 -12 15 -9 11 6 2 24 -11 24 -5 0 -7 -7 -4 -15z"/>
<path d="M3867 3693 c-13 -13 -7 -33 11 -33 13 0 14 2 3 9 -7 5 -10 14 -7 20
8 12 3 15 -7 4z"/>
<path d="M1763 3673 c-25 -17 -29 -39 -12 -63 10 -13 10 -13 6 0 -7 25 11 63
28 56 8 -3 15 -1 15 4 0 17 -15 18 -37 3z"/>
<path d="M1845 3681 c-4 -8 -2 -17 6 -23 10 -7 8 -8 -9 -5 -12 3 -19 1 -16 -4
3 -5 -8 -26 -25 -47 -28 -36 -29 -39 -11 -50 11 -7 16 -18 13 -30 -2 -11 1
-23 8 -27 8 -5 10 -4 5 3 -4 6 2 20 14 32 21 21 26 40 10 40 -5 0 -10 -6 -10
-12 0 -9 -3 -8 -9 2 -11 16 -4 33 10 25 5 -4 9 5 9 19 0 14 7 29 15 34 12 6
14 14 7 32 -6 17 -11 20 -17 11z"/>
<path d="M3797 3682 c-9 -13 36 -76 47 -65 3 3 -3 13 -13 22 -10 9 -20 25 -23
36 -2 15 -6 16 -11 7z"/>
<path d="M2160 3651 c0 -17 -4 -32 -10 -36 -5 -3 -1 -14 10 -25 11 -11 20 -27
20 -35 0 -10 10 -15 28 -15 35 0 48 10 48 37 0 24 -32 38 -60 27 -13 -5 -16 2
-16 35 0 23 -4 41 -10 41 -5 0 -10 -13 -10 -29z m73 -77 c-4 -12 -43 -21 -43
-10 0 19 14 33 30 29 11 -3 16 -11 13 -19z"/>
<path d="M3115 3670 c-3 -5 -1 -10 4 -10 6 0 11 5 11 10 0 6 -2 10 -4 10 -3 0
-8 -4 -11 -10z"/>
<path d="M1620 3662 c0 -5 7 -13 16 -16 10 -4 14 -1 12 6 -5 15 -28 23 -28 10z"/>
<path d="M3085 3660 c-3 -5 -1 -10 4 -10 6 0 11 5 11 10 0 6 -2 10 -4 10 -3 0
-8 -4 -11 -10z"/>
<path d="M1925 3652 c-12 -9 -18 -115 -5 -107 5 3 14 21 20 40 9 27 17 35 35
35 13 0 27 5 31 12 5 8 0 9 -15 5 -12 -3 -27 1 -35 9 -17 16 -18 16 -31 6z"/>
<path d="M2256 3649 c7 -8 14 -23 17 -34 4 -13 5 -9 4 9 -1 16 -9 32 -17 34
-12 4 -13 2 -4 -9z"/>
<path d="M3401 3649 c-1 -9 8 -24 19 -34 11 -10 20 -13 20 -7 0 6 -6 15 -14
19 -7 4 -16 15 -19 23 -5 13 -6 13 -6 -1z"/>
<path d="M1684 3634 c3 -9 6 -18 6 -20 0 -2 4 -4 9 -4 5 0 7 9 4 20 -3 11 -10
20 -15 20 -6 0 -7 -7 -4 -16z"/>
<path d="M2364 3635 c-4 -9 -2 -21 3 -26 7 -7 12 -3 16 10 6 25 -11 39 -19 16z"/>
<path d="M2470 3642 c0 -5 7 -9 15 -9 8 0 15 4 15 9 0 4 -7 8 -15 8 -8 0 -15
-4 -15 -8z"/>
<path d="M3176 3634 c-9 -24 -2 -26 12 -4 7 11 8 20 3 20 -5 0 -12 -7 -15 -16z"/>
<path d="M3360 3634 c0 -8 5 -12 10 -9 6 3 10 10 10 16 0 5 -4 9 -10 9 -5 0
-10 -7 -10 -16z"/>
<path d="M4108 3629 c-10 -10 -14 -20 -10 -22 4 -2 15 4 24 14 10 10 14 20 10
22 -4 2 -15 -4 -24 -14z"/>
<path d="M1467 3633 c-11 -10 -8 -43 3 -43 5 0 7 7 4 15 -4 8 -1 15 5 15 6 0
11 5 11 10 0 11 -13 13 -23 3z"/>
<path d="M2850 3626 c0 -9 5 -16 10 -16 6 0 10 4 10 9 0 6 -4 13 -10 16 -5 3
-10 -1 -10 -9z"/>
<path d="M3643 3625 c-9 -24 1 -27 15 -5 8 13 8 20 2 20 -6 0 -13 -7 -17 -15z"/>
<path d="M4930 3625 c-7 -9 -8 -15 -2 -15 5 0 12 7 16 15 3 8 4 15 2 15 -2 0
-9 -7 -16 -15z"/>
<path d="M2090 3614 c0 -8 5 -12 10 -9 6 3 10 10 10 16 0 5 -4 9 -10 9 -5 0
-10 -7 -10 -16z"/>
<path d="M2423 3610 c-10 -11 -23 -20 -30 -20 -7 0 -13 -4 -13 -10 0 -5 7 -10
16 -10 10 0 14 -6 10 -15 -7 -19 1 -19 19 -2 9 9 10 19 3 30 -7 13 -4 19 13
25 14 6 18 11 11 16 -6 4 -19 -2 -29 -14z"/>
<path d="M2596 3615 c-3 -8 -1 -15 4 -15 13 0 22 18 11 24 -5 3 -11 -1 -15 -9z"/>
<path d="M2690 3624 c1 -15 28 -46 37 -43 4 2 -2 15 -14 28 -13 13 -23 20 -23
15z"/>
<path d="M3036 3615 c-3 -8 -1 -15 3 -15 5 0 11 7 15 15 3 8 1 15 -3 15 -5 0
-11 -7 -15 -15z"/>
<path d="M2890 3610 c0 -5 4 -10 9 -10 6 0 13 5 16 10 3 6 -1 10 -9 10 -9 0
-16 -4 -16 -10z"/>
<path d="M1510 3602 c2 -32 69 -58 85 -32 6 9 -10 14 -42 13 -7 -1 -13 3 -13
7 0 4 -7 10 -15 14 -8 3 -15 2 -15 -2z"/>
<path d="M2802 3578 c-14 -54 -2 -70 34 -43 17 13 17 14 2 15 -21 0 -24 30 -6
48 9 9 8 12 -5 12 -10 0 -20 -12 -25 -32z"/>
<path d="M3326 3602 c-2 -4 10 -9 27 -10 24 -2 28 0 17 8 -18 12 -37 13 -44 2z"/>
<path d="M3500 3600 c0 -5 5 -10 10 -10 6 0 10 5 10 10 0 6 -4 10 -10 10 -5 0
-10 -4 -10 -10z"/>
<path d="M2530 3585 l-25 -14 28 -1 c17 0 27 5 27 15 0 18 1 18 -30 0z"/>
<path d="M3185 3590 c-3 -4 2 -11 11 -14 22 -8 34 -7 34 3 0 12 -39 21 -45 11z"/>
<path d="M2060 3580 c0 -5 -9 -10 -19 -10 -19 0 -38 -17 -29 -25 9 -9 68 20
68 32 0 7 -4 13 -10 13 -5 0 -10 -4 -10 -10z"/>
<path d="M2927 3583 c-4 -3 -7 -11 -7 -17 0 -6 5 -5 12 2 6 6 9 14 7 17 -3 3
-9 2 -12 -2z"/>
<path d="M2969 3588 c0 -2 -2 -12 -4 -23 -1 -11 -6 -28 -10 -37 -4 -10 -3 -18
3 -18 5 0 12 10 15 23 2 12 8 30 12 40 4 10 3 17 -4 17 -6 0 -11 -1 -12 -2z"/>
<path d="M4094 3576 c-8 -22 3 -33 18 -18 9 9 9 15 0 24 -9 9 -13 7 -18 -6z"/>
<path d="M4170 3580 c0 -6 7 -10 15 -10 8 0 15 2 15 4 0 2 -7 6 -15 10 -8 3
-15 1 -15 -4z"/>
<path d="M1350 3570 c0 -5 5 -10 11 -10 5 0 7 5 4 10 -3 6 -8 10 -11 10 -2 0
-4 -4 -4 -10z"/>
<path d="M3105 3570 c3 -5 8 -10 11 -10 2 0 4 5 4 10 0 6 -5 10 -11 10 -5 0
-7 -4 -4 -10z"/>
<path d="M3510 3565 c0 -37 12 -65 29 -65 10 0 16 9 16 25 0 14 -4 25 -9 25
-5 0 -15 8 -22 18 -13 16 -13 16 -14 -3z"/>
<path d="M4460 3570 c0 -5 5 -10 10 -10 6 0 10 5 10 10 0 6 -4 10 -10 10 -5 0
-10 -4 -10 -10z"/>
<path d="M1695 3541 c0 -43 21 -61 40 -35 19 26 19 40 -2 48 -10 3 -22 8 -28
11 -6 3 -10 -8 -10 -24z"/>
<path d="M2335 3560 c3 -5 13 -10 21 -10 8 0 12 5 9 10 -3 6 -13 10 -21 10 -8
0 -12 -4 -9 -10z"/>
<path d="M2483 3555 c-6 -7 -9 -16 -6 -19 4 -3 -1 -6 -10 -6 -20 0 -22 -13 -4
-29 11 -8 17 -5 26 13 16 30 12 60 -6 41z"/>
<path d="M3400 3562 c0 -12 19 -26 26 -19 2 2 -2 10 -11 17 -9 8 -15 8 -15 2z"/>
<path d="M3625 3560 c3 -5 8 -10 11 -10 2 0 4 5 4 10 0 6 -5 10 -11 10 -5 0
-7 -4 -4 -10z"/>
<path d="M3830 3560 c0 -5 5 -10 10 -10 6 0 10 5 10 10 0 6 -4 10 -10 10 -5 0
-10 -4 -10 -10z"/>
<path d="M1440 3543 c0 -6 7 -13 15 -17 8 -3 15 -16 15 -30 0 -22 2 -23 24
-13 22 11 23 13 8 21 -9 5 -27 18 -39 29 -13 11 -23 16 -23 10z"/>
<path d="M2630 3540 c0 -5 5 -10 10 -10 6 0 10 5 10 10 0 6 -4 10 -10 10 -5 0
-10 -4 -10 -10z"/>
<path d="M3287 3530 c-3 -11 -1 -20 4 -20 5 0 9 2 9 4 0 2 3 11 6 20 3 9 2 16
-4 16 -5 0 -12 -9 -15 -20z"/>
<path d="M3673 3534 c-7 -7 -13 -21 -13 -31 0 -12 5 -9 15 11 17 33 16 41 -2
20z"/>
<path d="M3950 3539 c0 -5 5 -7 10 -4 6 3 10 8 10 11 0 2 -4 4 -10 4 -5 0 -10
-5 -10 -11z"/>
<path d="M4745 3540 c3 -5 8 -10 11 -10 2 0 4 5 4 10 0 6 -5 10 -11 10 -5 0
-7 -4 -4 -10z"/>
<path d="M1531 3519 c0 -15 6 -32 14 -39 12 -10 15 -10 15 4 0 9 -4 16 -9 16
-5 0 -12 10 -14 23 -4 20 -4 19 -6 -4z"/>
<path d="M1965 3530 c-3 -5 -1 -10 4 -10 6 0 11 5 11 10 0 6 -2 10 -4 10 -3 0
-8 -4 -11 -10z"/>
<path d="M2007 3508 c-21 -20 -35 -27 -50 -23 -21 6 -21 6 -2 -6 11 -7 24 -17
28 -23 6 -8 10 -7 14 2 2 6 10 9 15 6 6 -4 8 -2 5 3 -4 6 2 22 13 36 29 36 11
40 -23 5z"/>
<path d="M2145 3530 c3 -5 8 -10 11 -10 2 0 4 5 4 10 0 6 -5 10 -11 10 -5 0
-7 -4 -4 -10z"/>
<path d="M1888 3523 c7 -3 16 -2 19 1 4 3 -2 6 -13 5 -11 0 -14 -3 -6 -6z"/>
<path d="M2100 3523 c0 -5 4 -15 10 -23 11 -18 25 -7 17 15 -6 15 -27 21 -27
8z"/>
<path d="M2364 3508 c3 -13 6 -26 6 -30 0 -10 40 -10 40 0 0 13 -31 52 -42 52
-6 0 -8 -10 -4 -22z"/>
<path d="M2665 3520 c3 -5 8 -10 11 -10 2 0 4 5 4 10 0 6 -5 10 -11 10 -5 0
-7 -4 -4 -10z"/>
<path d="M2915 3520 c-3 -5 -2 -10 4 -10 5 0 13 5 16 10 3 6 2 10 -4 10 -5 0
-13 -4 -16 -10z"/>
<path d="M2272 3502 c-11 -11 -26 -22 -33 -25 -10 -4 -9 -6 3 -6 24 -1 41 -34
26 -49 -8 -8 -8 -12 -2 -12 19 0 38 48 26 63 -9 10 -9 16 0 25 6 6 9 14 6 18
-4 3 -15 -3 -26 -14z"/>
<path d="M2310 3516 c0 -2 7 -6 15 -10 8 -3 15 -1 15 4 0 6 -7 10 -15 10 -8 0
-15 -2 -15 -4z"/>
<path d="M2603 3512 c-15 -5 -20 -11 -14 -20 6 -9 12 -8 26 8 10 11 16 20 14
19 -2 -1 -14 -4 -26 -7z"/>
<path d="M2727 3513 c-10 -9 -9 -33 1 -33 4 0 8 9 8 20 0 23 0 22 -9 13z"/>
<path d="M3750 3513 c5 -2 8 -9 4 -14 -3 -5 0 -9 6 -9 15 0 7 23 -8 26 -7 1
-8 0 -2 -3z"/>
<path d="M1863 3496 c-13 -6 -23 -18 -22 -26 0 -10 2 -11 6 -2 7 17 30 15 37
-3 6 -17 -2 -45 -15 -45 -4 0 -12 7 -17 16 -8 14 -12 11 -26 -16 -9 -18 -16
-41 -16 -50 0 -9 -3 -20 -7 -24 -4 -3 -8 -16 -10 -28 -2 -12 -8 -27 -14 -35
-6 -7 -7 -13 -2 -13 18 0 33 24 33 52 0 17 5 27 12 26 7 -2 12 2 13 7 1 18 38
53 50 49 18 -7 27 23 19 62 -7 40 -12 44 -41 30z"/>
<path d="M3610 3496 c6 -8 18 -12 27 -9 12 5 12 7 1 14 -7 5 -19 9 -27 9 -11
0 -11 -3 -1 -14z"/>
<path d="M2173 3493 c9 -2 23 -2 30 0 6 3 -1 5 -18 5 -16 0 -22 -2 -12 -5z"/>
<path d="M3157 3487 c-6 -17 19 -52 28 -38 8 13 -3 51 -15 51 -4 0 -10 -6 -13
-13z"/>
<path d="M1608 3477 c6 -7 9 -23 5 -35 -3 -14 -1 -22 7 -22 6 0 10 6 7 13 -2
6 3 17 11 23 19 14 7 34 -20 34 -16 0 -18 -3 -10 -13z"/>
<path d="M1760 3475 c-8 -9 -8 -15 -2 -15 12 0 26 19 19 26 -2 2 -10 -2 -17
-11z"/>
<path d="M2990 3474 c0 -8 5 -14 10 -14 6 0 10 -6 10 -14 0 -8 5 -18 10 -21 6
-4 10 6 10 23 0 21 -6 31 -20 35 -13 3 -20 0 -20 -9z"/>
<path d="M3095 3480 c3 -5 11 -10 16 -10 6 0 7 5 4 10 -3 6 -11 10 -16 10 -6
0 -7 -4 -4 -10z"/>
<path d="M4690 3474 c0 -8 5 -12 10 -9 6 4 8 11 5 16 -9 14 -15 11 -15 -7z"/>
<path d="M1347 3460 c3 -11 7 -20 9 -20 2 0 4 9 4 20 0 11 -4 20 -9 20 -5 0
-7 -9 -4 -20z"/>
<path d="M1710 3465 c-7 -9 -19 -14 -27 -11 -7 3 -13 2 -13 -3 0 -14 44 -21
52 -8 8 12 11 37 4 37 -2 0 -9 -7 -16 -15z"/>
<path d="M2096 3465 c-3 -9 -1 -25 5 -36 7 -15 7 -24 -2 -35 -15 -18 -28 -18
-51 3 -11 10 -18 12 -18 4 0 -6 7 -14 15 -17 8 -4 15 -12 15 -20 0 -8 5 -14
10 -14 6 0 10 4 10 9 0 14 37 20 49 8 6 -6 13 -8 16 -5 3 3 -1 13 -10 22 -9 8
-17 31 -18 50 -3 40 -12 54 -21 31z"/>
<path d="M2506 3465 c-8 -23 -8 -25 9 -25 7 0 18 -7 22 -15 7 -12 10 -11 21 5
9 15 9 20 0 20 -6 0 -19 7 -28 15 -16 14 -18 14 -24 0z"/>
<path d="M2794 3468 c-4 -7 -4 -10 1 -6 4 4 14 3 21 -3 10 -8 6 -20 -17 -55
-21 -30 -28 -50 -24 -65 11 -34 30 -15 33 34 3 39 8 49 33 64 30 18 40 37 15
27 -8 -3 -17 -1 -21 5 -9 15 -32 14 -41 -1z"/>
<path d="M3546 3465 c-3 -8 -1 -15 4 -15 6 0 10 7 10 15 0 8 -2 15 -4 15 -2 0
-6 -7 -10 -15z"/>
<path d="M2590 3460 c0 -5 5 -10 10 -10 6 0 10 5 10 10 0 6 -4 10 -10 10 -5 0
-10 -4 -10 -10z"/>
<path d="M3820 3466 c0 -9 30 -14 35 -6 4 6 -3 10 -14 10 -12 0 -21 -2 -21 -4z"/>
<path d="M4020 3465 c0 -5 5 -17 10 -25 5 -8 10 -10 10 -5 0 6 -5 17 -10 25
-5 8 -10 11 -10 5z"/>
<path d="M4262 3454 c-7 -8 -8 -14 -3 -14 10 0 25 19 20 25 -2 1 -10 -3 -17
-11z"/>
<path d="M4520 3460 c0 -5 5 -10 10 -10 6 0 10 5 10 10 0 6 -4 10 -10 10 -5 0
-10 -4 -10 -10z"/>
<path d="M1440 3451 c0 -6 5 -13 10 -16 6 -3 10 1 10 9 0 9 -4 16 -10 16 -5 0
-10 -4 -10 -9z"/>
<path d="M2058 3453 c7 -3 16 -2 19 1 4 3 -2 6 -13 5 -11 0 -14 -3 -6 -6z"/>
<path d="M3070 3435 c-26 -28 -24 -37 7 -29 14 4 20 13 19 30 0 13 -1 24 -2
24 0 0 -11 -11 -24 -25z"/>
<path d="M3371 3444 c0 -11 3 -14 6 -6 3 7 2 16 -1 19 -3 4 -6 -2 -5 -13z"/>
<path d="M3685 3450 c3 -5 11 -10 16 -10 6 0 7 5 4 10 -3 6 -11 10 -16 10 -6
0 -7 -4 -4 -10z"/>
<path d="M1755 3440 c3 -5 13 -10 21 -10 8 0 12 5 9 10 -3 6 -13 10 -21 10 -8
0 -12 -4 -9 -10z"/>
<path d="M2180 3431 c0 -12 5 -21 10 -21 6 0 10 6 10 14 0 8 -4 18 -10 21 -5
3 -10 -3 -10 -14z"/>
<path d="M2035 3430 c-3 -5 -1 -10 4 -10 6 0 11 5 11 10 0 6 -2 10 -4 10 -3 0
-8 -4 -11 -10z"/>
<path d="M2902 3420 c7 -11 19 -18 26 -15 8 3 20 5 28 5 8 0 14 4 14 8 0 5
-13 7 -30 4 -18 -3 -30 0 -30 7 0 6 -5 11 -10 11 -6 0 -5 -8 2 -20z"/>
<path d="M3250 3429 c0 -5 5 -7 10 -4 6 3 10 8 10 11 0 2 -4 4 -10 4 -5 0 -10
-5 -10 -11z"/>
<path d="M3416 3424 c-23 -23 -20 -30 4 -9 11 10 20 20 20 22 0 7 -9 2 -24
-13z"/>
<path d="M4326 3411 c-10 -19 -12 -32 -6 -36 6 -3 10 2 10 12 0 11 5 24 12 31
6 6 9 14 6 18 -4 3 -14 -8 -22 -25z"/>
<path d="M1325 3420 c-3 -6 1 -7 9 -4 18 7 21 14 7 14 -6 0 -13 -4 -16 -10z"/>
<path d="M1530 3415 c-6 -7 -18 -11 -26 -8 -18 7 -18 -17 0 -42 12 -16 12 -22
0 -41 -12 -18 -12 -23 -1 -33 11 -9 12 -19 3 -53 -6 -24 -15 -49 -19 -55 -5
-9 -3 -13 7 -13 8 0 22 -10 30 -22 19 -27 32 -18 16 11 -8 15 -8 27 0 41 9 16
8 20 -5 20 -23 0 -18 37 8 55 l22 17 -22 -7 c-20 -5 -23 -3 -23 18 0 14 6 28
13 31 9 3 7 9 -6 19 -16 13 -16 15 -2 21 22 8 81 -51 77 -76 -2 -10 4 -21 13
-24 24 -9 28 1 12 28 -8 12 -15 41 -16 62 -1 45 -8 57 -22 36 -8 -13 -12 -12
-28 7 -16 19 -21 20 -31 8z"/>
<path d="M2635 3420 c3 -5 13 -10 21 -10 8 0 14 5 14 10 0 6 -9 10 -21 10 -11
0 -17 -4 -14 -10z"/>
<path d="M1460 3404 c0 -8 5 -12 10 -9 6 4 8 11 5 16 -9 14 -15 11 -15 -7z"/>
<path d="M1716 3404 c-4 -9 -4 -19 -1 -22 2 -3 7 3 11 12 4 9 4 19 1 22 -2 3
-7 -3 -11 -12z"/>
<path d="M2366 3411 c-3 -5 1 -11 9 -15 8 -3 15 -1 15 4 0 13 -18 22 -24 11z"/>
<path d="M3460 3416 c0 -2 7 -6 15 -10 8 -3 15 -1 15 4 0 6 -7 10 -15 10 -8 0
-15 -2 -15 -4z"/>
<path d="M3650 3410 c0 -5 5 -10 11 -10 5 0 7 5 4 10 -3 6 -8 10 -11 10 -2 0
-4 -4 -4 -10z"/>
<path d="M3110 3400 c0 -5 9 -10 20 -10 11 0 20 5 20 10 0 6 -9 10 -20 10 -11
0 -20 -4 -20 -10z"/>
<path d="M3850 3399 c0 -4 7 -9 15 -13 9 -3 15 0 15 8 0 7 -7 13 -15 13 -8 0
-15 -4 -15 -8z"/>
<path d="M1374 3377 c-14 -16 -18 -30 -13 -47 6 -24 7 -24 14 -5 5 11 13 23
19 27 11 7 16 48 6 48 -3 0 -15 -10 -26 -23z"/>
<path d="M2325 3370 c0 -16 3 -31 7 -35 4 -4 4 -14 1 -22 -4 -11 -2 -14 8 -11
9 3 13 16 11 36 -2 20 1 32 9 32 12 0 3 15 -9 15 -4 0 -11 3 -17 7 -6 3 -10
-6 -10 -22z"/>
<path d="M2480 3385 c0 -8 4 -15 10 -15 5 0 7 7 4 15 -4 8 -8 15 -10 15 -2 0
-4 -7 -4 -15z"/>
<path d="M2976 3392 c-3 -6 -1 -14 5 -17 15 -10 25 3 12 16 -7 7 -13 7 -17 1z"/>
<path d="M2640 3375 c-10 -12 -10 -15 4 -15 9 0 16 7 16 15 0 8 -2 15 -4 15
-2 0 -9 -7 -16 -15z"/>
<path d="M2690 3382 c0 -12 19 -26 26 -19 2 2 -2 10 -11 17 -9 8 -15 8 -15 2z"/>
<path d="M3270 3379 c0 -5 5 -7 10 -4 6 3 10 8 10 11 0 2 -4 4 -10 4 -5 0 -10
-5 -10 -11z"/>
<path d="M3380 3381 c0 -5 7 -11 15 -15 9 -3 15 0 15 9 0 8 -7 15 -15 15 -8 0
-15 -4 -15 -9z"/>
<path d="M4945 3380 c-3 -5 -1 -10 4 -10 6 0 11 5 11 10 0 6 -2 10 -4 10 -3 0
-8 -4 -11 -10z"/>
<path d="M2210 3370 c0 -5 9 -10 20 -10 11 0 20 5 20 10 0 6 -9 10 -20 10 -11
0 -20 -4 -20 -10z"/>
<path d="M1730 3365 c0 -2 9 -19 20 -37 17 -28 20 -30 20 -11 0 12 -7 29 -16
37 -16 16 -24 20 -24 11z"/>
<path d="M2538 3364 c-4 -3 -4 -13 -1 -22 5 -12 1 -14 -15 -10 -14 4 -22 2
-22 -7 0 -17 50 -7 57 12 6 16 -9 37 -19 27z"/>
<path d="M2858 3364 c-5 -4 -8 -16 -8 -28 0 -14 3 -17 11 -9 6 6 9 19 7 28 -1
9 -6 13 -10 9z"/>
<path d="M3010 3360 c0 -5 4 -10 9 -10 6 0 13 5 16 10 3 6 -1 10 -9 10 -9 0
-16 -4 -16 -10z"/>
<path d="M1255 3350 c3 -5 11 -10 16 -10 6 0 7 5 4 10 -3 6 -11 10 -16 10 -6
0 -7 -4 -4 -10z"/>
<path d="M1443 3321 c2 -39 22 -53 30 -21 3 13 0 20 -8 20 -8 0 -16 8 -19 18
-2 9 -4 2 -3 -17z"/>
<path d="M1692 3330 c0 -14 2 -19 5 -12 2 6 2 18 0 25 -3 6 -5 1 -5 -13z"/>
<path d="M1857 3329 c3 -10 9 -16 14 -13 13 8 11 21 -5 27 -10 4 -12 0 -9 -14z"/>
<path d="M2396 3335 c4 -8 10 -15 15 -15 5 0 9 7 9 15 0 8 -7 15 -15 15 -9 0
-12 -6 -9 -15z"/>
<path d="M2926 3341 c-4 -6 -2 -11 3 -11 6 0 11 -8 12 -17 0 -10 3 -13 5 -6 8
18 -11 49 -20 34z"/>
<path d="M3105 3316 c-8 -19 -20 -36 -27 -38 -7 -3 -2 -7 10 -10 18 -5 22 -2
22 18 0 14 7 27 15 30 17 7 21 34 4 34 -5 0 -16 -15 -24 -34z"/>
<path d="M4480 3323 c0 -22 2 -25 10 -13 13 20 13 40 0 40 -5 0 -10 -12 -10
-27z"/>
<path d="M1978 3318 c-15 -23 -15 -26 0 -42 16 -16 16 -18 -2 -32 -11 -8 -26
-14 -33 -14 -7 0 -13 -5 -13 -10 0 -6 12 -8 28 -4 20 4 23 3 12 -5 -8 -5 -11
-13 -7 -17 3 -4 13 -1 22 6 17 14 17 14 31 -12 7 -13 13 -14 24 -7 10 7 11 12
3 15 -8 4 -9 14 -3 35 5 18 5 27 -1 24 -14 -9 -29 4 -22 20 3 9 18 15 35 15
38 0 28 16 -16 24 -19 4 -36 12 -38 18 -2 6 -11 0 -20 -14z"/>
<path d="M2070 3325 c0 -8 7 -15 15 -15 8 0 15 4 15 9 0 5 -7 11 -15 15 -9 3
-15 0 -15 -9z"/>
<path d="M4080 3330 c0 -5 5 -10 10 -10 6 0 10 5 10 10 0 6 -4 10 -10 10 -5 0
-10 -4 -10 -10z"/>
<path d="M2248 3306 c-6 -15 -9 -28 -6 -31 11 -11 38 8 38 25 0 30 -19 33 -32
6z"/>
<path d="M2698 3321 c-11 -4 -14 -11 -9 -19 6 -10 10 -10 21 3 15 19 11 25
-12 16z"/>
<path d="M2985 3320 c-3 -5 1 -10 9 -10 9 0 16 5 16 10 0 6 -4 10 -9 10 -6 0
-13 -4 -16 -10z"/>
<path d="M3300 3320 c0 -5 7 -10 16 -10 8 0 12 5 9 10 -3 6 -10 10 -16 10 -5
0 -9 -4 -9 -10z"/>
<path d="M3340 3319 c0 -5 5 -7 10 -4 6 3 10 8 10 11 0 2 -4 4 -10 4 -5 0 -10
-5 -10 -11z"/>
<path d="M3468 3322 c-9 -2 -19 -10 -22 -18 -6 -17 5 -19 22 -2 8 8 15 8 26
-1 8 -7 17 -8 19 -3 8 11 -24 29 -45 24z"/>
<path d="M2120 3315 c0 -21 19 -38 35 -32 9 4 13 11 10 17 -4 6 -11 7 -17 4
-6 -4 -14 0 -19 7 -5 8 -9 10 -9 4z"/>
<path d="M2545 3300 c-13 -14 -21 -17 -26 -9 -5 8 -8 8 -13 0 -4 -6 -19 -11
-34 -11 -21 0 -24 -2 -12 -10 8 -5 16 -14 16 -20 1 -5 2 -13 3 -17 0 -4 7 1
14 12 10 13 21 16 39 12 23 -6 25 -4 20 18 -3 18 0 25 12 25 9 0 16 5 16 10 0
16 -15 12 -35 -10z"/>
<path d="M3940 3316 c0 -2 7 -9 15 -16 12 -10 15 -10 15 4 0 9 -7 16 -15 16
-8 0 -15 -2 -15 -4z"/>
<path d="M2832 3289 c-11 -16 -9 -19 8 -19 11 0 20 6 20 14 0 24 -15 26 -28 5z"/>
<path d="M3170 3295 c0 -8 5 -15 10 -15 6 0 10 7 10 15 0 8 -4 15 -10 15 -5 0
-10 -7 -10 -15z"/>
<path d="M3590 3300 c0 -5 4 -10 9 -10 6 0 13 5 16 10 3 6 -1 10 -9 10 -9 0
-16 -4 -16 -10z"/>
<path d="M1370 3290 c0 -5 5 -10 10 -10 6 0 10 5 10 10 0 6 -4 10 -10 10 -5 0
-10 -4 -10 -10z"/>
<path d="M3770 3290 c0 -5 7 -10 15 -10 8 0 15 5 15 10 0 6 -7 10 -15 10 -8 0
-15 -4 -15 -10z"/>
<path d="M1880 3276 c0 -8 5 -18 10 -21 6 -3 10 3 10 14 0 12 -4 21 -10 21 -5
0 -10 -6 -10 -14z"/>
<path d="M2611 3267 c-1 -19 -5 -26 -13 -21 -6 4 -9 3 -6 -2 3 -5 8 -17 11
-27 6 -17 8 -17 23 -2 11 11 13 19 6 28 -5 7 -12 21 -15 32 -3 15 -5 13 -6 -8z"/>
<path d="M4205 3263 c-3 -15 -13 -32 -22 -38 -10 -7 -12 -14 -6 -18 6 -4 17 1
25 11 18 21 32 72 19 72 -5 0 -12 -12 -16 -27z"/>
<path d="M4330 3280 c0 -5 5 -10 10 -10 6 0 10 5 10 10 0 6 -4 10 -10 10 -5 0
-10 -4 -10 -10z"/>
<path d="M1704 3266 c-3 -7 -14 -11 -28 -9 -27 5 -45 -25 -24 -39 8 -5 1 -8
-20 -8 -28 0 -32 -3 -27 -19 3 -11 1 -22 -5 -26 -8 -5 -6 -13 7 -27 17 -19 17
-21 -9 -70 -19 -35 -22 -48 -12 -44 9 3 12 2 9 -5 -4 -5 -14 -7 -24 -4 -11 3
-20 -3 -26 -18 -6 -13 -20 -23 -35 -24 -14 0 -30 -1 -36 -2 -7 -1 -15 -8 -18
-17 -5 -14 -1 -16 24 -11 32 7 60 0 60 -14 0 -5 -7 -9 -15 -9 -8 0 -15 -4 -15
-9 0 -5 9 -7 20 -4 13 3 20 14 20 28 0 13 7 30 15 39 14 14 18 13 36 -5 l20
-20 -20 -18 c-24 -21 -27 -33 -7 -25 10 4 14 -2 12 -19 0 -14 -4 -25 -7 -24
-8 2 -9 -3 -9 -39 0 -18 4 -25 14 -21 7 3 19 0 25 -6 21 -21 12 -54 -24 -83
-19 -15 -33 -30 -30 -32 3 -3 -3 -10 -12 -17 -15 -11 -14 -14 5 -33 12 -12 22
-31 22 -41 0 -11 6 -21 13 -24 8 -3 6 -10 -8 -21 -20 -15 -20 -15 3 -16 17 0
22 6 22 25 0 17 7 28 23 34 28 11 37 3 44 -40 6 -42 5 -41 37 -33 28 7 34 32
14 52 -7 7 -8 12 -4 12 5 0 3 7 -4 15 -11 13 -11 18 0 28 9 9 11 9 6 0 -9 -16
7 -24 24 -12 13 8 11 12 -7 26 -13 8 -23 21 -23 28 0 8 -8 16 -17 18 -17 4
-17 5 0 6 10 0 15 6 12 11 -4 7 -13 7 -26 0 -20 -11 -39 -6 -39 11 0 6 8 8 19
4 15 -5 18 -1 13 21 -4 24 -2 26 17 21 11 -3 21 -1 21 4 0 5 -8 9 -17 9 -10 0
-31 12 -46 26 -23 19 -26 28 -18 38 9 11 9 15 -1 19 -9 4 -8 6 3 6 12 1 15 8
12 25 -4 17 0 25 16 29 12 3 21 10 21 16 0 19 -18 12 -38 -14 -20 -25 -42 -33
-42 -15 0 6 9 18 20 27 11 10 20 23 20 29 0 14 -28 26 -41 19 -5 -4 -7 0 -5 7
12 37 15 78 6 73 -6 -3 -7 1 -4 9 3 9 16 16 28 16 17 0 22 6 22 23 -1 18 4 22
27 22 15 -1 27 5 27 12 0 17 -59 11 -71 -8 -7 -11 -9 -8 -9 9 0 12 5 22 10 22
6 0 10 7 10 15 0 9 6 12 15 9 11 -5 13 -2 9 9 -7 18 25 66 44 67 18 0 15 20
-3 20 -9 0 -18 -6 -21 -14z m-64 -596 c-1 -7 -26 -40 -31 -40 -2 0 -5 11 -5
24 -1 18 3 24 17 23 10 -1 19 -4 19 -7z m54 -7 c-1 -7 -2 -20 -2 -28 -1 -9
-12 -15 -28 -15 -20 0 -25 4 -20 16 3 9 6 21 6 28 0 8 10 13 23 12 12 0 22 -7
21 -13z"/>
<path d="M2671 3271 c-10 -6 -10 -10 -1 -16 13 -8 24 -1 19 14 -3 6 -10 7 -18
2z"/>
<path d="M2902 3265 c-19 -10 -20 -14 -8 -18 10 -4 20 1 26 13 6 11 9 20 8 19
-2 -1 -13 -7 -26 -14z"/>
<path d="M3330 3263 c0 -12 5 -25 10 -28 13 -8 13 15 0 35 -8 12 -10 11 -10
-7z"/>
<path d="M1571 3254 c0 -11 3 -14 6 -6 3 7 2 16 -1 19 -3 4 -6 -2 -5 -13z"/>
<path d="M1800 3260 c0 -5 6 -10 14 -10 7 0 19 -7 26 -15 14 -17 40 -20 40 -5
0 6 -8 13 -17 16 -10 3 -26 10 -35 15 -23 12 -28 11 -28 -1z"/>
<path d="M2092 3257 c-12 -14 3 -40 30 -50 13 -5 16 -14 11 -41 -3 -22 -2 -36
5 -36 6 0 12 -6 14 -13 2 -9 11 -11 28 -6 23 7 24 7 3 8 -29 1 -50 36 -26 45
9 4 24 -1 34 -10 20 -18 23 -16 13 10 -3 9 -11 16 -18 16 -6 0 -17 4 -25 9
-12 8 -12 12 2 26 18 18 22 35 8 35 -5 0 -14 -7 -21 -15 -11 -14 -15 -14 -30
2 -10 10 -16 21 -13 26 7 12 -4 8 -15 -6z"/>
<path d="M2376 3254 c-5 -12 -1 -23 10 -31 24 -18 28 -10 11 22 -12 25 -15 26
-21 9z"/>
<path d="M2842 3240 c0 -14 2 -19 5 -12 2 6 2 18 0 25 -3 6 -5 1 -5 -13z"/>
<path d="M3680 3250 c-12 -8 -11 -10 7 -10 12 0 25 5 28 10 8 13 -15 13 -35 0z"/>
<path d="M4006 3251 c-3 -5 3 -11 13 -14 14 -3 18 -1 14 9 -6 16 -19 18 -27 5z"/>
<path d="M2913 3230 c-3 -12 -14 -20 -25 -20 -17 0 -18 -3 -9 -14 11 -13 15
-12 30 3 10 10 24 20 32 23 7 2 9 10 5 16 -11 18 -27 14 -33 -8z"/>
<path d="M3026 3225 c3 -8 0 -17 -8 -20 -15 -6 -21 -42 -8 -50 4 -3 11 6 14
20 4 14 11 25 16 25 6 0 10 9 10 20 0 11 -7 20 -15 20 -9 0 -12 -6 -9 -15z"/>
<path d="M3231 3210 c-8 -24 -7 -30 5 -30 7 0 14 6 14 14 0 8 3 21 6 30 3 9 2
16 -4 16 -6 0 -15 -13 -21 -30z"/>
<path d="M3396 3225 c-11 -9 -14 -15 -7 -15 7 0 19 7 27 15 20 19 5 19 -20 0z"/>
<path d="M2262 3208 c8 -12 20 -24 27 -26 18 -6 -9 36 -28 43 -11 5 -11 2 1
-17z"/>
<path d="M3540 3216 c0 -9 5 -16 10 -16 6 0 10 4 10 9 0 6 -4 13 -10 16 -5 3
-10 -1 -10 -9z"/>
<path d="M3630 3220 c0 -5 7 -10 15 -10 8 0 15 5 15 10 0 6 -7 10 -15 10 -8 0
-15 -4 -15 -10z"/>
<path d="M1407 3201 c3 -10 0 -22 -6 -25 -20 -12 -12 -28 10 -21 16 5 19 4 14
-5 -5 -9 -4 -11 3 -6 19 11 14 54 -7 65 -16 9 -18 8 -14 -8z"/>
<path d="M2637 3213 c-11 -10 -8 -20 8 -27 10 -4 15 1 15 14 0 20 -11 26 -23
13z"/>
<path d="M2775 3210 c-3 -5 1 -10 9 -10 9 0 16 5 16 10 0 6 -4 10 -9 10 -6 0
-13 -4 -16 -10z"/>
<path d="M3160 3200 c6 -11 13 -20 16 -20 2 0 0 9 -6 20 -6 11 -13 20 -16 20
-2 0 0 -9 6 -20z"/>
<path d="M1350 3190 c0 -11 7 -20 15 -20 17 0 18 2 9 24 -9 23 -24 20 -24 -4z"/>
<path d="M4695 3200 c-3 -5 -1 -10 4 -10 6 0 11 5 11 10 0 6 -2 10 -4 10 -3 0
-8 -4 -11 -10z"/>
<path d="M1765 3190 c-3 -5 -2 -10 4 -10 6 0 8 -13 4 -32 l-6 -33 22 27 c11
14 21 33 21 42 0 18 -35 22 -45 6z"/>
<path d="M1856 3169 c-20 -40 -17 -44 11 -15 13 14 18 27 14 35 -6 9 -13 4
-25 -20z"/>
<path d="M2464 3174 c-4 -14 -2 -30 4 -36 7 -7 10 1 9 26 -1 43 -4 45 -13 10z"/>
<path d="M3905 3190 c-3 -5 1 -10 9 -10 9 0 16 5 16 10 0 6 -4 10 -9 10 -6 0
-13 -4 -16 -10z"/>
<path d="M1297 3183 c-14 -13 -7 -53 9 -53 13 0 14 3 4 15 -7 8 -10 22 -6 30
6 16 3 19 -7 8z"/>
<path d="M1918 3176 c-24 -18 -23 -25 4 -18 17 4 20 2 15 -12 -4 -10 -3 -15 3
-11 6 3 10 1 10 -4 0 -6 -7 -11 -15 -11 -14 0 -20 -12 -16 -33 1 -5 -11 -7
-26 -5 -20 2 -27 8 -25 21 2 9 -2 17 -8 17 -5 0 -10 -10 -10 -22 0 -45 -11
-66 -30 -61 -15 4 -18 1 -13 -18 4 -13 8 -18 11 -11 5 15 34 16 49 1 8 -8 13
-8 17 0 4 6 2 11 -3 11 -6 0 -11 11 -11 25 0 16 6 25 16 25 9 0 14 -6 11 -13
-3 -8 -1 -20 3 -27 7 -11 11 -11 26 0 9 8 23 15 30 15 8 0 14 5 13 10 0 6 -9
9 -20 8 -19 -3 -19 -2 -2 22 10 13 24 25 31 25 18 0 15 20 -4 20 -11 0 -15 6
-11 20 3 13 0 20 -8 20 -7 0 -15 4 -17 9 -1 5 -11 4 -20 -3z"/>
<path d="M3336 3171 c-4 -7 -5 -15 -2 -18 9 -9 19 4 14 18 -4 11 -6 11 -12 0z"/>
<path d="M3750 3165 c0 -9 5 -15 11 -13 6 2 11 8 11 13 0 5 -5 11 -11 13 -6 2
-11 -4 -11 -13z"/>
<path d="M2400 3154 c0 -8 5 -12 10 -9 6 4 8 11 5 16 -9 14 -15 11 -15 -7z"/>
<path d="M2540 3160 c-13 -9 -13 -10 0 -10 13 0 13 -2 0 -9 -8 -6 -18 -7 -22
-5 -4 3 -8 0 -8 -5 0 -6 4 -11 9 -11 5 0 12 -10 15 -22 l6 -23 21 24 c14 18
17 26 8 32 -7 4 -9 14 -6 23 7 18 -1 20 -23 6z"/>
<path d="M2727 3156 c-3 -8 1 -17 9 -20 24 -9 16 -41 -16 -65 -17 -12 -34 -20
-39 -17 -4 3 -16 -1 -26 -8 -17 -12 -16 -14 11 -14 16 0 32 5 36 12 5 7 12 4
22 -9 9 -11 16 -15 16 -8 0 6 -5 15 -10 18 -15 9 -4 22 38 42 24 12 31 19 20
21 -9 2 -22 16 -28 33 -14 32 -25 37 -33 15z"/>
<path d="M3150 3160 c0 -5 7 -10 15 -10 8 0 15 5 15 10 0 6 -7 10 -15 10 -8 0
-15 -4 -15 -10z"/>
<path d="M3420 3155 c0 -8 5 -15 10 -15 6 0 10 7 10 15 0 8 -4 15 -10 15 -5 0
-10 -7 -10 -15z"/>
<path d="M4535 3160 c-3 -5 3 -10 14 -10 12 0 21 5 21 10 0 6 -6 10 -14 10 -8
0 -18 -4 -21 -10z"/>
<path d="M2286 3152 c-13 -13 -5 -23 14 -17 14 5 20 2 20 -9 0 -9 8 -16 18
-15 9 0 12 3 6 5 -7 3 -10 13 -7 22 3 12 -3 17 -21 18 -14 1 -27 -1 -30 -4z"/>
<path d="M3575 3149 c-11 -17 1 -21 15 -4 8 9 8 15 2 15 -6 0 -14 -5 -17 -11z"/>
<path d="M3990 3144 c0 -8 5 -12 10 -9 6 3 10 10 10 16 0 5 -4 9 -10 9 -5 0
-10 -7 -10 -16z"/>
<path d="M2950 3141 c0 -5 7 -14 15 -21 16 -14 18 -10 9 14 -6 17 -24 22 -24
7z"/>
<path d="M3260 3141 c0 -6 5 -13 10 -16 6 -3 10 1 10 9 0 9 -4 16 -10 16 -5 0
-10 -4 -10 -9z"/>
<path d="M1374 3125 c-13 -10 -14 -14 -4 -13 13 3 15 -1 19 -35 1 -13 40 -41
48 -34 2 3 -5 14 -17 25 -15 14 -20 27 -16 40 9 27 -6 35 -30 17z"/>
<path d="M2222 3092 c1 -47 2 -48 30 -44 15 2 28 8 28 13 0 5 -6 8 -12 7 -8
-2 -13 8 -13 23 0 15 -7 32 -17 38 -15 9 -17 6 -16 -37z"/>
<path d="M2632 3131 c-10 -6 -10 -10 3 -21 8 -7 15 -10 15 -7 0 3 3 12 6 21 7
17 -3 20 -24 7z"/>
<path d="M3090 3122 c0 -15 4 -20 16 -15 9 3 12 9 7 12 -4 3 -11 10 -15 15 -5
5 -8 0 -8 -12z"/>
<path d="M1444 3100 c-1 -23 2 -28 11 -20 7 6 11 20 8 30 -8 30 -18 24 -19
-10z"/>
<path d="M2077 3095 c9 -19 20 -35 25 -35 4 0 4 8 -1 18 -5 9 -12 25 -15 35
-3 9 -10 17 -16 17 -5 0 -2 -16 7 -35z"/>
<path d="M2400 3118 c0 -9 -6 -19 -12 -22 -7 -4 -3 -4 10 -2 12 2 20 0 16 -5
-3 -5 0 -9 5 -9 15 0 13 11 -4 34 -12 16 -15 17 -15 4z"/>
<path d="M3534 3117 c3 -10 6 -25 6 -33 0 -8 10 -14 22 -14 19 0 20 2 6 13 -8
6 -21 21 -28 32 -9 17 -11 17 -6 2z"/>
<path d="M1272 3104 c-10 -18 -5 -54 8 -54 4 0 7 16 8 35 2 39 -2 43 -16 19z"/>
<path d="M3184 3095 c-9 -37 0 -40 13 -5 6 17 7 30 2 30 -5 0 -11 -11 -15 -25z"/>
<path d="M3610 3109 c0 -5 5 -7 10 -4 6 3 10 8 10 11 0 2 -4 4 -10 4 -5 0 -10
-5 -10 -11z"/>
<path d="M3805 3110 c3 -5 8 -10 11 -10 2 0 4 5 4 10 0 6 -5 10 -11 10 -5 0
-7 -4 -4 -10z"/>
<path d="M3910 3109 c0 -5 5 -7 10 -4 6 3 10 8 10 11 0 2 -4 4 -10 4 -5 0 -10
-5 -10 -11z"/>
<path d="M3970 3110 c0 -5 5 -10 10 -10 6 0 10 5 10 10 0 6 -4 10 -10 10 -5 0
-10 -4 -10 -10z"/>
<path d="M1540 3090 c0 -11 7 -20 15 -20 17 0 18 2 9 24 -9 23 -24 20 -24 -4z"/>
<path d="M1700 3085 c7 -9 15 -13 17 -11 7 7 -7 26 -19 26 -6 0 -6 -6 2 -15z"/>
<path d="M2300 3085 c-10 -12 -10 -15 4 -15 9 0 16 7 16 15 0 8 -2 15 -4 15
-2 0 -9 -7 -16 -15z"/>
<path d="M2965 3090 c3 -5 8 -10 11 -10 2 0 4 5 4 10 0 6 -5 10 -11 10 -5 0
-7 -4 -4 -10z"/>
<path d="M2995 3090 c-3 -5 -2 -10 4 -10 5 0 13 5 16 10 3 6 2 10 -4 10 -5 0
-13 -4 -16 -10z"/>
<path d="M4515 3090 c3 -5 10 -10 16 -10 5 0 9 5 9 10 0 6 -7 10 -16 10 -8 0
-12 -4 -9 -10z"/>
<path d="M1755 3081 c-3 -5 -1 -12 5 -16 5 -3 10 1 10 9 0 18 -6 21 -15 7z"/>
<path d="M2826 3081 c-4 -7 -5 -15 -2 -18 9 -9 19 4 14 18 -4 11 -6 11 -12 0z"/>
<path d="M3456 3075 c-3 -8 -1 -15 4 -15 6 0 10 7 10 15 0 8 -2 15 -4 15 -2 0
-6 -7 -10 -15z"/>
<path d="M3750 3080 c0 -5 5 -10 10 -10 6 0 10 5 10 10 0 6 -4 10 -10 10 -5 0
-10 -4 -10 -10z"/>
<path d="M2020 3070 c0 -5 4 -10 9 -10 6 0 13 5 16 10 3 6 -1 10 -9 10 -9 0
-16 -4 -16 -10z"/>
<path d="M2385 3061 c-3 -11 -12 -18 -19 -15 -20 8 -72 -44 -59 -57 11 -11 46
1 44 14 -3 19 3 24 44 36 43 13 45 12 69 -16 28 -31 31 -39 16 -48 -6 -4 -8
-11 -5 -16 4 -5 12 -4 19 3 10 9 10 21 3 45 -6 18 -14 30 -18 27 -4 -2 -10 0
-14 5 -4 8 -62 41 -71 41 -1 0 -5 -9 -9 -19z"/>
<path d="M3700 3068 c0 -4 7 -8 15 -8 8 0 15 4 15 8 0 5 -7 9 -15 9 -8 0 -15
-4 -15 -9z"/>
<path d="M3838 3073 c7 -3 16 -2 19 1 4 3 -2 6 -13 5 -11 0 -14 -3 -6 -6z"/>
<path d="M4420 3069 c0 -5 5 -7 10 -4 6 3 10 8 10 11 0 2 -4 4 -10 4 -5 0 -10
-5 -10 -11z"/>
<path d="M4635 3069 c-4 -6 -5 -12 -2 -15 2 -3 7 2 10 11 7 17 1 20 -8 4z"/>
<path d="M1510 3062 c0 -5 7 -17 16 -28 11 -13 17 -15 20 -6 3 6 12 12 20 12
8 0 14 5 14 11 0 7 -10 9 -25 5 -14 -4 -25 -2 -25 4 0 5 -4 10 -10 10 -5 0
-10 -4 -10 -8z"/>
<path d="M1670 3060 c0 -5 7 -13 16 -18 14 -8 14 -10 0 -21 -9 -8 -16 -21 -16
-30 0 -11 9 -6 31 17 16 17 31 32 33 32 1 0 3 -14 3 -31 0 -33 25 -60 31 -33
2 8 -1 21 -8 29 -8 10 -8 14 2 18 10 3 9 9 -5 23 -18 19 -87 30 -87 14z"/>
<path d="M1780 3060 c0 -5 4 -10 9 -10 6 0 13 5 16 10 3 6 -1 10 -9 10 -9 0
-16 -4 -16 -10z"/>
<path d="M2910 3055 c0 -8 5 -15 10 -15 6 0 10 7 10 15 0 8 -4 15 -10 15 -5 0
-10 -7 -10 -15z"/>
<path d="M4081 3054 c0 -11 3 -14 6 -6 3 7 2 16 -1 19 -3 4 -6 -2 -5 -13z"/>
<path d="M2120 3055 c0 -2 5 -16 12 -29 9 -21 8 -29 -5 -44 -18 -20 -23 -37
-8 -28 4 3 16 -1 27 -8 15 -12 16 -16 5 -30 -7 -9 -9 -16 -3 -16 20 0 35 63
22 90 -4 8 -13 27 -21 43 -10 23 -29 37 -29 22z"/>
<path d="M2790 3051 c0 -11 31 -24 39 -16 3 3 -1 10 -9 15 -19 12 -30 12 -30
1z"/>
<path d="M3255 3050 c4 -6 11 -8 16 -5 14 9 11 15 -7 15 -8 0 -12 -5 -9 -10z"/>
<path d="M3940 3050 c0 -5 5 -10 10 -10 6 0 10 5 10 10 0 6 -4 10 -10 10 -5 0
-10 -4 -10 -10z"/>
<path d="M4516 3045 c-3 -8 -1 -15 4 -15 6 0 10 7 10 15 0 8 -2 15 -4 15 -2 0
-6 -7 -10 -15z"/>
<path d="M2050 3040 c0 -6 7 -10 15 -10 8 0 15 2 15 4 0 2 -7 6 -15 10 -8 3
-15 1 -15 -4z"/>
<path d="M2952 3039 c2 -7 10 -15 17 -17 8 -3 12 1 9 9 -2 7 -10 15 -17 17 -8
3 -12 -1 -9 -9z"/>
<path d="M3480 3039 c0 -6 -7 -9 -14 -6 -10 4 -13 1 -9 -10 3 -8 0 -19 -8 -24
-12 -7 -11 -9 2 -9 18 0 49 30 49 48 0 7 -4 12 -10 12 -5 0 -10 -5 -10 -11z"/>
<path d="M2585 3023 c5 -10 8 -26 9 -35 0 -11 8 -18 20 -18 11 0 16 3 13 7 -4
3 -2 12 5 20 9 11 7 15 -10 20 -12 3 -22 9 -22 14 0 5 -5 9 -11 9 -7 0 -8 -7
-4 -17z"/>
<path d="M3525 3030 c-3 -5 1 -13 10 -16 22 -9 29 1 11 15 -10 8 -16 9 -21 1z"/>
<path d="M1425 3020 c-3 -5 -24 -8 -45 -6 -22 2 -40 0 -40 -4 0 -4 23 -8 50
-9 38 0 50 3 50 14 0 17 -6 19 -15 5z"/>
<path d="M2200 3020 c0 -5 5 -10 10 -10 6 0 10 5 10 10 0 6 -4 10 -10 10 -5 0
-10 -4 -10 -10z"/>
<path d="M4070 3020 c0 -5 5 -10 10 -10 6 0 10 5 10 10 0 6 -4 10 -10 10 -5 0
-10 -4 -10 -10z"/>
<path d="M4328 3023 c7 -3 16 -2 19 1 4 3 -2 6 -13 5 -11 0 -14 -3 -6 -6z"/>
<path d="M4531 3017 c-6 -8 -8 -17 -4 -20 12 -12 19 -7 19 13 0 24 0 24 -15 7z"/>
<path d="M1920 3010 c0 -5 5 -10 10 -10 6 0 10 5 10 10 0 6 -4 10 -10 10 -5 0
-10 -4 -10 -10z"/>
<path d="M1999 3009 c-7 -4 -18 -5 -26 -2 -7 3 -13 1 -13 -5 0 -6 6 -12 13
-15 15 -5 15 -93 -1 -109 -7 -7 -12 -19 -11 -27 0 -9 4 -6 10 8 8 20 14 23 42
18 29 -5 32 -3 32 19 -1 14 -7 30 -13 36 -9 9 -8 15 1 27 10 12 9 14 -6 8 -16
-6 -16 -4 -3 22 13 23 13 28 1 28 -8 0 -20 -4 -26 -8z"/>
<path d="M3098 2998 c21 -15 31 -29 28 -40 -2 -10 0 -18 5 -18 5 0 9 9 9 20 0
25 -34 60 -57 60 -12 0 -8 -7 15 -22z"/>
<path d="M4305 3000 c-3 -5 -1 -10 4 -10 6 0 11 5 11 10 0 6 -2 10 -4 10 -3 0
-8 -4 -11 -10z"/>
<path d="M3717 2993 c-12 -11 -8 -23 8 -23 8 0 15 7 15 15 0 16 -12 20 -23 8z"/>
<path d="M4602 2989 c2 -7 10 -15 17 -17 8 -3 12 1 9 9 -2 7 -10 15 -17 17 -8
3 -12 -1 -9 -9z"/>
<path d="M1826 2953 c10 -55 17 -59 29 -13 4 19 1 28 -15 38 -20 12 -21 11
-14 -25z"/>
<path d="M2370 2981 c0 -5 5 -13 11 -17 7 -4 9 -21 6 -41 -5 -29 -4 -33 8 -23
8 7 15 21 15 30 0 10 6 21 13 23 7 4 6 6 -5 6 -9 1 -24 8 -32 17 -9 8 -16 11
-16 5z"/>
<path d="M1911 2973 c0 -7 -10 -13 -21 -13 -11 0 -20 -5 -20 -11 0 -6 7 -9 15
-5 10 3 15 -1 15 -11 0 -12 3 -14 11 -6 6 6 9 21 6 34 -2 13 -5 18 -6 12z"/>
<path d="M2668 2959 c-9 -9 -14 -20 -10 -23 3 -4 -3 -13 -14 -21 -17 -13 -17
-14 -2 -15 17 0 31 15 35 39 1 8 7 17 13 21 7 4 8 10 4 12 -5 3 -16 -3 -26
-13z"/>
<path d="M2856 2971 c-3 -5 0 -14 8 -20 11 -9 15 -8 20 5 3 8 6 18 6 20 0 8
-29 4 -34 -5z"/>
<path d="M3600 2969 c0 -5 5 -7 10 -4 6 3 10 8 10 11 0 2 -4 4 -10 4 -5 0 -10
-5 -10 -11z"/>
<path d="M2962 2945 c-10 -21 -9 -25 3 -25 9 0 15 10 15 25 0 14 -2 25 -3 25
-2 0 -9 -11 -15 -25z"/>
<path d="M3330 2959 c0 -5 5 -7 10 -4 6 3 10 8 10 11 0 2 -4 4 -10 4 -5 0 -10
-5 -10 -11z"/>
<path d="M3475 2960 c3 -5 13 -10 21 -10 8 0 12 5 9 10 -3 6 -13 10 -21 10 -8
0 -12 -4 -9 -10z"/>
<path d="M4790 2960 c0 -5 5 -10 10 -10 6 0 10 5 10 10 0 6 -4 10 -10 10 -5 0
-10 -4 -10 -10z"/>
<path d="M2218 2934 c3 -18 8 -22 17 -14 9 7 20 4 39 -11 27 -22 34 -57 14
-77 -9 -9 -6 -12 16 -12 24 0 27 2 16 15 -7 8 -10 24 -7 36 3 12 0 22 -8 25
-8 3 -18 20 -24 37 -9 23 -14 28 -23 19 -7 -7 -17 -8 -28 -2 -14 8 -16 5 -12
-16z"/>
<path d="M2324 2938 c3 -13 6 -26 6 -30 0 -5 7 -8 16 -8 9 0 13 5 10 13 -3 6
-9 20 -12 30 -9 25 -27 21 -20 -5z"/>
<path d="M4045 2950 c3 -5 10 -10 16 -10 5 0 9 5 9 10 0 6 -7 10 -16 10 -8 0
-12 -4 -9 -10z"/>
<path d="M4480 2939 c7 -11 14 -19 16 -16 7 7 -7 37 -17 37 -6 0 -5 -9 1 -21z"/>
<path d="M1366 2934 c-8 -22 -8 -26 4 -19 6 4 18 1 26 -6 24 -19 30 -1 6 21
-26 24 -28 24 -36 4z"/>
<path d="M2556 2926 c3 -14 0 -29 -10 -39 -9 -9 -13 -18 -8 -20 10 -7 47 21
39 29 -4 4 1 13 11 20 16 13 16 13 0 14 -10 0 -18 5 -18 10 0 6 -5 10 -10 10
-6 0 -8 -10 -4 -24z"/>
<path d="M3550 2936 c0 -9 5 -16 10 -16 6 0 10 4 10 9 0 6 -4 13 -10 16 -5 3
-10 -1 -10 -9z"/>
<path d="M3231 2933 c-1 -7 5 -16 12 -20 8 -4 17 -17 21 -28 l8 -20 8 20 c9
25 4 35 -20 35 -10 0 -21 6 -23 13 -4 9 -6 9 -6 0z"/>
<path d="M3750 2935 c0 -5 5 -17 10 -25 5 -8 10 -10 10 -5 0 6 -5 17 -10 25
-5 8 -10 11 -10 5z"/>
<path d="M1466 2905 c7 -27 6 -29 -10 -16 -14 12 -16 12 -10 -3 3 -9 10 -16
14 -16 4 0 10 -18 14 -40 4 -26 11 -40 21 -40 8 0 14 3 14 8 -1 4 0 9 1 12 1
3 3 22 4 42 2 31 0 36 -11 27 -10 -9 -13 -8 -13 2 0 8 -8 23 -16 34 -15 19
-15 19 -8 -10z"/>
<path d="M2903 2922 c-25 -4 -32 -22 -8 -22 7 0 18 -7 23 -17 8 -14 10 -14 17
6 8 28 -2 38 -32 33z"/>
<path d="M3417 2924 c-9 -10 2 -24 19 -24 8 0 14 7 14 15 0 15 -21 21 -33 9z"/>
<path d="M4811 2921 c-7 -5 -11 -15 -9 -22 3 -10 8 -7 17 9 13 24 12 26 -8 13z"/>
<path d="M1237 2901 c-4 -17 -3 -21 5 -13 5 5 8 16 6 23 -3 8 -7 3 -11 -10z"/>
<path d="M3321 2904 c0 -11 3 -14 6 -6 3 7 2 16 -1 19 -3 4 -6 -2 -5 -13z"/>
<path d="M3578 2895 c-3 -14 -1 -25 3 -25 5 0 9 11 9 25 0 14 -2 25 -4 25 -2
0 -6 -11 -8 -25z"/>
<path d="M1770 2900 c0 -5 -7 -7 -15 -4 -8 4 -15 1 -15 -5 0 -6 9 -11 20 -11
11 0 20 -4 20 -10 0 -5 -7 -7 -15 -4 -20 8 -20 -23 1 -43 10 -10 13 -25 10
-39 -4 -15 0 -34 10 -49 10 -16 14 -34 10 -51 -5 -19 -2 -30 11 -41 17 -14 17
-14 1 -9 -21 6 -23 -1 -5 -17 33 -31 43 -6 18 42 -16 28 -14 31 14 29 15 -1
24 -7 21 -14 -2 -6 6 -17 20 -24 19 -11 23 -20 21 -47 -1 -25 -6 -32 -17 -27
-29 13 -70 16 -70 6 0 -13 26 -23 45 -16 8 4 17 -1 21 -9 3 -9 13 -13 26 -9
19 5 20 2 14 -34 -6 -36 -5 -38 9 -20 15 20 19 16 16 -16 -3 -26 18 -22 30 5
9 20 9 20 4 -5 -5 -24 -2 -28 16 -28 16 0 19 3 11 13 -14 16 -18 49 -9 65 5 6
4 12 -2 12 -5 0 -11 -5 -13 -11 -6 -18 -46 0 -54 24 -8 22 -7 39 2 66 3 11 7
11 19 1 18 -15 19 -7 4 22 -8 15 -13 17 -19 8 -6 -9 -12 -4 -23 17 -12 23 -13
33 -4 42 8 8 8 11 -1 11 -7 0 -12 -4 -12 -10 0 -19 -26 -10 -27 10 -1 11 2 20
7 20 4 0 7 8 5 18 -2 9 -4 20 -4 25 -1 4 -12 12 -26 17 -19 7 -25 17 -25 39 0
23 4 29 15 25 17 -7 18 -3 9 20 -6 15 -7 15 -19 0 -13 -19 -35 -11 -35 12 0 8
-4 14 -10 14 -5 0 -10 -4 -10 -10z m31 -71 c-9 -22 -10 -22 -10 -3 -1 11 2 24
6 27 12 12 14 0 4 -24z m35 -43 c15 -16 15 -37 -1 -48 -6 -5 -5 -8 3 -8 6 0
12 -7 12 -15 0 -20 -22 -15 -37 10 -22 37 -25 45 -19 60 7 19 23 19 42 1z"/>
<path d="M2980 2900 c0 -5 5 -10 11 -10 5 0 7 5 4 10 -3 6 -8 10 -11 10 -2 0
-4 -4 -4 -10z"/>
<path d="M4603 2903 c-15 -5 -17 -23 -4 -23 5 0 11 7 15 15 3 8 4 15 3 14 -1
0 -8 -3 -14 -6z"/>
<path d="M1310 2891 c0 -5 5 -13 10 -16 6 -3 10 -2 10 4 0 5 -4 13 -10 16 -5
3 -10 2 -10 -4z"/>
<path d="M2847 2879 c4 -16 8 -17 14 -7 13 19 11 28 -5 28 -9 0 -12 -7 -9 -21z"/>
<path d="M2640 2881 c0 -6 -11 -13 -25 -17 -14 -3 -25 -12 -25 -19 0 -8 8 -11
21 -8 20 6 20 4 8 -18 -14 -25 -15 -30 -17 -68 -2 -16 -6 -21 -17 -17 -8 3
-15 0 -15 -5 0 -7 9 -9 23 -5 12 3 26 6 31 6 4 0 6 12 3 26 -4 22 -1 25 15 21
13 -4 17 -2 11 6 -14 19 -16 67 -3 82 7 9 8 15 0 20 -5 3 -10 2 -10 -4z"/>
<path d="M2712 2874 c-11 -12 -9 -14 8 -14 15 0 22 -8 27 -30 3 -16 10 -30 15
-30 15 0 0 52 -20 72 -15 14 -19 15 -30 2z"/>
<path d="M3491 2874 c0 -11 3 -14 6 -6 3 7 2 16 -1 19 -3 4 -6 -2 -5 -13z"/>
<path d="M1910 2866 c26 -13 40 -12 40 5 0 5 -15 9 -32 9 l-33 0 25 -14z"/>
<path d="M2128 2873 c-13 -3 -16 -15 -13 -69 2 -36 6 -68 9 -71 11 -11 20 7
20 42 0 19 3 35 6 35 4 0 6 16 6 35 -1 19 -3 34 -6 34 -3 -1 -12 -3 -22 -6z"/>
<path d="M3123 2861 c4 -18 2 -21 -14 -16 -10 4 -19 2 -19 -3 0 -11 36 -23 44
-14 10 10 6 41 -6 48 -8 5 -9 0 -5 -15z"/>
<path d="M3350 2870 c-8 -5 -11 -12 -7 -16 4 -4 13 -2 19 4 15 15 7 24 -12 12z"/>
<path d="M2480 2860 c0 -5 5 -10 10 -10 6 0 10 5 10 10 0 6 -4 10 -10 10 -5 0
-10 -4 -10 -10z"/>
<path d="M3196 2863 c-3 -3 -3 -10 0 -14 7 -12 34 -11 34 0 0 11 -26 22 -34
14z"/>
<path d="M3670 2860 c0 -5 5 -10 10 -10 6 0 10 5 10 10 0 6 -4 10 -10 10 -5 0
-10 -4 -10 -10z"/>
<path d="M4220 2860 c0 -5 5 -10 11 -10 5 0 7 5 4 10 -3 6 -8 10 -11 10 -2 0
-4 -4 -4 -10z"/>
<path d="M1400 2845 c0 -8 5 -15 10 -15 13 0 13 -37 0 -45 -7 -5 -8 -11 -1
-19 6 -7 6 -17 1 -26 -15 -24 -11 -37 5 -16 8 11 21 16 30 13 8 -4 15 -2 15 3
0 5 9 12 21 15 16 5 18 10 10 18 -9 9 -16 8 -31 -1 -24 -15 -34 -1 -26 36 5
20 2 30 -14 40 -17 10 -20 10 -20 -3z"/>
<path d="M1850 2835 c0 -8 4 -15 10 -15 5 0 7 7 4 15 -4 8 -8 15 -10 15 -2 0
-4 -7 -4 -15z"/>
<path d="M2050 2840 c0 -5 7 -10 15 -10 8 0 15 5 15 10 0 6 -7 10 -15 10 -8 0
-15 -4 -15 -10z"/>
<path d="M2201 2841 c-17 -11 -23 -38 -11 -46 5 -3 11 4 15 14 4 13 12 18 22
14 10 -4 14 -2 11 7 -6 18 -20 22 -37 11z"/>
<path d="M2370 2823 c0 -20 8 -36 23 -47 12 -9 17 -14 11 -12 -7 3 -14 -1 -18
-9 -3 -9 0 -15 10 -15 8 0 19 -12 24 -26 6 -14 15 -22 20 -19 8 5 8 11 1 19
-6 7 -11 26 -13 43 -1 18 -6 29 -11 26 -5 -3 -13 0 -17 7 -5 8 2 21 19 36 14
13 21 24 15 24 -7 0 -15 -7 -18 -16 -6 -15 -8 -15 -26 1 -20 18 -20 17 -20
-12z"/>
<path d="M2920 2840 c0 -5 5 -10 10 -10 6 0 10 5 10 10 0 6 -4 10 -10 10 -5 0
-10 -4 -10 -10z"/>
<path d="M3005 2828 c1 -13 5 -31 10 -41 6 -15 10 -16 16 -5 12 18 11 50 -1
43 -5 -3 -10 1 -10 9 0 9 -4 16 -8 16 -4 0 -7 -10 -7 -22z"/>
<path d="M2031 2824 c0 -11 3 -14 6 -6 3 7 2 16 -1 19 -3 4 -6 -2 -5 -13z"/>
<path d="M2790 2834 c0 -10 44 -43 58 -44 6 0 12 7 12 15 0 8 -6 12 -14 9 -7
-3 -16 2 -19 10 -6 15 -37 23 -37 10z"/>
<path d="M3395 2830 c3 -5 8 -10 11 -10 2 0 4 5 4 10 0 6 -5 10 -11 10 -5 0
-7 -4 -4 -10z"/>
<path d="M1907 2823 c-4 -3 -7 -11 -7 -17 0 -6 5 -5 12 2 6 6 9 14 7 17 -3 3
-9 2 -12 -2z"/>
<path d="M1960 2821 c0 -6 4 -13 10 -16 6 -3 7 1 4 9 -7 18 -14 21 -14 7z"/>
<path d="M1370 2810 c0 -5 5 -10 10 -10 6 0 10 5 10 10 0 6 -4 10 -10 10 -5 0
-10 -4 -10 -10z"/>
<path d="M1695 2810 c3 -5 8 -10 11 -10 2 0 4 5 4 10 0 6 -5 10 -11 10 -5 0
-7 -4 -4 -10z"/>
<path d="M2512 2803 c-10 -19 -6 -43 8 -43 11 0 19 49 9 56 -4 2 -12 -3 -17
-13z"/>
<path d="M2900 2810 c-9 -6 -10 -10 -3 -10 6 0 15 5 18 10 8 12 4 12 -15 0z"/>
<path d="M3306 2805 c-3 -9 0 -15 9 -15 16 0 20 16 6 24 -5 3 -11 -1 -15 -9z"/>
<path d="M3748 2813 c7 -3 16 -2 19 1 4 3 -2 6 -13 5 -11 0 -14 -3 -6 -6z"/>
<path d="M3825 2810 c-3 -5 -2 -10 4 -10 5 0 13 5 16 10 3 6 2 10 -4 10 -5 0
-13 -4 -16 -10z"/>
<path d="M4250 2810 c-8 -5 -11 -12 -8 -16 10 -9 38 3 38 16 0 12 -10 13 -30
0z"/>
<path d="M1325 2799 c-11 -16 -1 -19 13 -3 7 8 8 14 3 14 -5 0 -13 -5 -16 -11z"/>
<path d="M1995 2790 c4 -6 11 -8 16 -5 14 9 11 15 -7 15 -8 0 -12 -5 -9 -10z"/>
<path d="M2690 2792 c0 -12 19 -26 26 -19 2 2 -2 10 -11 17 -9 8 -15 8 -15 2z"/>
<path d="M1555 2780 c3 -5 8 -10 11 -10 2 0 4 5 4 10 0 6 -5 10 -11 10 -5 0
-7 -4 -4 -10z"/>
<path d="M2740 2780 c0 -5 5 -10 10 -10 6 0 10 5 10 10 0 6 -4 10 -10 10 -5 0
-10 -4 -10 -10z"/>
<path d="M3995 2781 c-6 -11 9 -23 19 -14 9 9 7 23 -3 23 -6 0 -12 -4 -16 -9z"/>
<path d="M4370 2780 c-13 -8 -13 -10 2 -10 9 0 20 5 23 10 8 13 -5 13 -25 0z"/>
<path d="M1926 2756 c-18 -29 -10 -34 20 -12 14 11 16 18 8 26 -8 8 -15 4 -28
-14z"/>
<path d="M2906 2765 c6 -14 -22 -74 -40 -87 -6 -4 -4 -13 3 -22 7 -9 11 -27 9
-41 -3 -14 -2 -25 2 -25 12 0 18 47 8 64 -12 22 8 56 33 56 22 0 42 -39 28
-54 -14 -15 -11 -26 6 -20 9 4 15 19 15 40 0 22 -6 37 -15 40 -8 4 -15 14 -15
23 0 9 -9 22 -20 28 -16 11 -18 10 -14 -2z"/>
<path d="M3877 2773 c-10 -9 -8 -43 2 -43 5 0 11 11 13 25 5 24 -2 32 -15 18z"/>
<path d="M2250 2760 c0 -5 5 -10 11 -10 5 0 7 5 4 10 -3 6 -8 10 -11 10 -2 0
-4 -4 -4 -10z"/>
<path d="M3190 2766 c0 -2 7 -9 15 -16 12 -10 15 -10 15 4 0 9 -7 16 -15 16
-8 0 -15 -2 -15 -4z"/>
<path d="M1982 2748 c6 -18 28 -21 28 -4 0 9 -7 16 -16 16 -9 0 -14 -5 -12
-12z"/>
<path d="M3093 2753 c-15 -6 1 -43 19 -43 7 0 6 5 -2 15 -6 8 -9 19 -5 25 7
11 6 11 -12 3z"/>
<path d="M2234 2733 c3 -8 6 -17 6 -19 0 -3 4 -3 10 1 5 3 18 0 29 -7 17 -10
23 -10 33 1 11 12 10 13 -4 8 -9 -3 -22 0 -28 8 -6 7 -20 15 -31 18 -15 4 -19
2 -15 -10z"/>
<path d="M2684 2713 c3 -20 1 -44 -4 -54 -7 -12 -5 -19 6 -23 12 -4 14 -1 9
14 -5 15 0 23 22 32 27 11 27 12 6 15 -17 3 -23 11 -23 29 0 13 -5 24 -10 24
-6 0 -8 -16 -6 -37z"/>
<path d="M3026 2735 c-11 -8 -18 -17 -15 -19 2 -2 15 4 28 15 27 22 15 26 -13
4z"/>
<path d="M3958 2743 c7 -3 16 -2 19 1 4 3 -2 6 -13 5 -11 0 -14 -3 -6 -6z"/>
<path d="M4190 2735 c7 -9 15 -13 17 -11 7 7 -7 26 -19 26 -6 0 -6 -6 2 -15z"/>
<path d="M2070 2720 c9 -16 13 -18 24 -8 17 16 11 28 -15 28 -17 0 -18 -3 -9
-20z"/>
<path d="M2342 2732 c-7 -5 -10 -16 -6 -25 3 -10 1 -17 -5 -17 -6 0 -8 -6 -6
-12 3 -7 1 -20 -4 -28 -8 -12 -13 -11 -31 5 -17 15 -23 17 -29 6 -11 -17 -32
-5 -24 14 7 19 -11 19 -27 0 -8 -9 -8 -15 -2 -15 6 0 14 -9 17 -21 5 -16 9
-18 21 -8 12 10 17 9 27 0 7 -7 8 -12 2 -11 -21 5 -29 -1 -15 -10 13 -8 12
-11 -5 -25 -11 -9 -14 -14 -7 -10 6 3 12 1 12 -5 0 -8 6 -8 21 1 13 7 19 17
16 29 -3 14 4 23 28 34 37 18 49 40 35 65 -6 12 -5 22 2 29 14 14 -1 16 -20 4z"/>
<path d="M3710 2730 c0 -5 5 -10 10 -10 6 0 10 5 10 10 0 6 -4 10 -10 10 -5 0
-10 -4 -10 -10z"/>
<path d="M4081 2714 c0 -11 3 -14 6 -6 3 7 2 16 -1 19 -3 4 -6 -2 -5 -13z"/>
<path d="M4775 2720 c3 -5 8 -10 11 -10 2 0 4 5 4 10 0 6 -5 10 -11 10 -5 0
-7 -4 -4 -10z"/>
<path d="M1461 2704 c0 -11 3 -14 6 -6 3 7 2 16 -1 19 -3 4 -6 -2 -5 -13z"/>
<path d="M3620 2710 c0 -5 5 -10 10 -10 6 0 10 5 10 10 0 6 -4 10 -10 10 -5 0
-10 -4 -10 -10z"/>
<path d="M1500 2700 c0 -5 5 -10 11 -10 5 0 7 5 4 10 -3 6 -8 10 -11 10 -2 0
-4 -4 -4 -10z"/>
<path d="M2490 2703 c1 -18 19 -35 29 -28 9 5 9 10 0 21 -12 15 -29 19 -29 7z"/>
<path d="M3280 2708 c0 -2 9 -11 20 -21 11 -9 20 -13 20 -7 0 5 -9 14 -20 20
-11 6 -20 9 -20 8z"/>
<path d="M1991 2684 c-7 -8 -10 -18 -7 -21 8 -9 56 14 56 27 0 15 -33 11 -49
-6z"/>
<path d="M2550 2693 c0 -2 11 -8 25 -13 16 -6 23 -14 19 -25 -3 -8 -2 -15 4
-15 6 0 14 12 20 28 9 26 8 27 -29 27 -22 1 -39 0 -39 -2z"/>
<path d="M3231 2678 c-9 -24 -6 -38 9 -38 5 0 7 7 4 15 -4 8 -1 22 6 30 9 11
9 15 1 15 -6 0 -15 -10 -20 -22z"/>
<path d="M3425 2690 c3 -5 10 -10 16 -10 5 0 9 5 9 10 0 6 -7 10 -16 10 -8 0
-12 -4 -9 -10z"/>
<path d="M4775 2690 c4 -6 11 -8 16 -5 14 9 11 15 -7 15 -8 0 -12 -5 -9 -10z"/>
<path d="M4150 2680 c-10 -6 -11 -12 -5 -18 6 -5 17 -2 28 10 18 19 4 25 -23
8z"/>
<path d="M1221 2664 c0 -11 3 -14 6 -6 3 7 2 16 -1 19 -3 4 -6 -2 -5 -13z"/>
<path d="M2138 2650 c-3 -19 -1 -29 6 -27 15 5 20 37 8 49 -6 6 -11 -1 -14
-22z"/>
<path d="M3026 2666 c3 -9 12 -16 20 -16 8 0 17 0 21 -1 4 0 9 4 11 10 2 6 -3
8 -12 5 -9 -3 -23 -1 -31 6 -13 11 -14 10 -9 -4z"/>
<path d="M3916 2673 c-11 -11 -6 -23 9 -23 8 0 15 4 15 9 0 13 -16 22 -24 14z"/>
<path d="M4392 2671 c2 -7 7 -12 11 -12 12 1 9 15 -3 20 -7 2 -11 -2 -8 -8z"/>
<path d="M1470 2655 c0 -8 7 -15 16 -15 14 0 14 3 4 15 -7 8 -14 15 -16 15 -2
0 -4 -7 -4 -15z"/>
<path d="M2469 2660 c-7 -5 -11 -11 -9 -13 27 -21 70 -47 70 -42 0 4 -11 20
-24 35 -16 19 -27 25 -37 20z"/>
<path d="M1345 2650 c-3 -5 -1 -10 4 -10 6 0 11 5 11 10 0 6 -2 10 -4 10 -3 0
-8 -4 -11 -10z"/>
<path d="M2027 2639 c-3 -12 0 -22 9 -26 28 -10 36 -41 18 -68 -9 -14 -14 -28
-10 -32 3 -3 6 -1 6 5 0 7 6 12 14 12 19 0 27 38 13 61 -7 11 -15 19 -18 19
-4 0 -5 8 -2 19 3 10 -2 21 -10 24 -10 4 -17 -2 -20 -14z"/>
<path d="M2770 2652 c0 -12 19 -26 26 -19 2 2 -2 10 -11 17 -9 8 -15 8 -15 2z"/>
<path d="M3777 2640 c-3 -11 -2 -22 3 -25 4 -3 10 6 12 20 6 30 -7 34 -15 5z"/>
<path d="M2815 2640 c-3 -5 -1 -10 4 -10 6 0 11 5 11 10 0 6 -2 10 -4 10 -3 0
-8 -4 -11 -10z"/>
<path d="M3190 2640 c0 -5 5 -10 10 -10 6 0 10 5 10 10 0 6 -4 10 -10 10 -5 0
-10 -4 -10 -10z"/>
<path d="M2390 2629 c0 -5 5 -7 10 -4 6 3 10 8 10 11 0 2 -4 4 -10 4 -5 0 -10
-5 -10 -11z"/>
<path d="M2620 2630 c0 -13 11 -13 30 0 12 8 11 10 -7 10 -13 0 -23 -4 -23
-10z"/>
<path d="M3905 2630 c-3 -5 -1 -10 4 -10 6 0 11 5 11 10 0 6 -2 10 -4 10 -3 0
-8 -4 -11 -10z"/>
<path d="M4060 2630 c0 -5 5 -10 10 -10 6 0 10 5 10 10 0 6 -4 10 -10 10 -5 0
-10 -4 -10 -10z"/>
<path d="M1400 2614 c0 -6 8 -19 19 -28 17 -16 20 -16 35 -1 15 16 21 35 11
35 -3 0 -14 -6 -25 -12 -17 -11 -22 -10 -30 2 -5 8 -10 10 -10 4z"/>
<path d="M2105 2600 c10 -11 20 -20 22 -20 2 0 -1 9 -7 20 -6 11 -16 20 -22
20 -6 0 -3 -9 7 -20z"/>
<path d="M2550 2613 c0 -5 4 -14 9 -22 11 -17 32 -5 24 14 -5 15 -33 21 -33 8z"/>
<path d="M2704 2595 c-1 -16 3 -24 10 -22 6 3 21 -4 33 -15 27 -25 27 0 0 26
-9 10 -17 22 -17 27 0 22 -25 6 -26 -16z"/>
<path d="M2800 2601 c0 -11 4 -22 9 -25 4 -3 6 6 3 19 -5 30 -12 33 -12 6z"/>
<path d="M2335 2600 c3 -5 8 -10 11 -10 2 0 4 5 4 10 0 6 -5 10 -11 10 -5 0
-7 -4 -4 -10z"/>
<path d="M2371 2592 c-13 -25 -14 -32 -2 -32 9 0 23 41 16 48 -2 2 -8 -5 -14
-16z"/>
<path d="M2610 2600 c0 -5 5 -10 10 -10 6 0 10 5 10 10 0 6 -4 10 -10 10 -5 0
-10 -4 -10 -10z"/>
<path d="M2940 2596 c0 -8 7 -16 15 -20 13 -4 14 -2 5 14 -13 23 -20 26 -20 6z"/>
<path d="M3085 2600 c3 -5 8 -10 11 -10 2 0 4 5 4 10 0 6 -5 10 -11 10 -5 0
-7 -4 -4 -10z"/>
<path d="M3435 2600 c-3 -5 -1 -10 4 -10 6 0 11 5 11 10 0 6 -2 10 -4 10 -3 0
-8 -4 -11 -10z"/>
<path d="M1235 2590 c3 -5 8 -10 11 -10 2 0 4 5 4 10 0 6 -5 10 -11 10 -5 0
-7 -4 -4 -10z"/>
<path d="M2425 2590 c-4 -6 3 -10 14 -10 25 0 27 6 6 13 -8 4 -17 2 -20 -3z"/>
<path d="M3180 2590 c0 -5 5 -10 10 -10 6 0 10 5 10 10 0 6 -4 10 -10 10 -5 0
-10 -4 -10 -10z"/>
<path d="M3640 2574 c0 -11 -3 -30 -5 -44 -3 -14 -3 -19 1 -12 3 6 12 12 20
12 19 0 18 34 -1 50 -12 10 -15 9 -15 -6z"/>
<path d="M1510 2564 c0 -8 5 -12 10 -9 6 3 10 10 10 16 0 5 -4 9 -10 9 -5 0
-10 -7 -10 -16z"/>
<path d="M2205 2570 c-3 -5 -1 -10 4 -10 6 0 11 5 11 10 0 6 -2 10 -4 10 -3 0
-8 -4 -11 -10z"/>
<path d="M3960 2575 c-1 -5 -3 -18 -5 -27 -2 -10 1 -20 5 -23 13 -8 18 8 9 35
-4 14 -8 21 -9 15z"/>
<path d="M4160 2569 c0 -5 5 -7 10 -4 6 3 10 8 10 11 0 2 -4 4 -10 4 -5 0 -10
-5 -10 -11z"/>
<path d="M4340 2565 c-7 -9 -19 -14 -27 -11 -7 3 -13 -1 -13 -8 0 -18 47 -8
55 11 8 22 0 26 -15 8z"/>
<path d="M2390 2561 c0 -5 7 -14 15 -21 25 -21 18 -46 -17 -58 -31 -9 -31 -10
-7 -11 14 -1 36 8 49 19 25 22 60 27 60 8 0 -6 3 -9 6 -5 3 3 3 15 -1 26 -5
18 -9 19 -26 8 -18 -10 -23 -8 -43 16 -22 27 -36 34 -36 18z"/>
<path d="M3316 2554 c-4 -9 -4 -19 -1 -22 2 -3 7 3 11 12 4 9 4 19 1 22 -2 3
-7 -3 -11 -12z"/>
<path d="M2157 2543 c4 -10 11 -22 17 -26 6 -5 1 -5 -12 -2 -20 6 -21 4 -13
-18 6 -14 7 -28 4 -31 -7 -7 56 -66 70 -66 4 0 15 7 24 15 9 9 23 13 34 10 25
-8 26 20 2 29 -10 3 -24 9 -32 12 -9 4 -11 2 -7 -4 7 -12 -10 -52 -22 -52 -4
0 -15 12 -23 28 -18 33 -14 76 7 68 8 -3 14 1 14 10 0 10 -6 14 -15 10 -9 -3
-20 3 -27 14 -16 25 -30 26 -21 3z"/>
<path d="M2508 2548 c17 -8 26 -8 34 0 9 9 4 12 -22 11 -33 0 -34 -1 -12 -11z"/>
<path d="M2670 2541 c0 -12 5 -21 10 -21 6 0 10 6 10 14 0 8 -4 18 -10 21 -5
3 -10 -3 -10 -14z"/>
<path d="M2880 2546 c0 -8 4 -17 9 -20 5 -4 7 3 4 14 -6 23 -13 26 -13 6z"/>
<path d="M1310 2536 c0 -8 5 -18 10 -21 6 -3 10 1 10 9 0 8 -4 18 -10 21 -5 3
-10 -1 -10 -9z"/>
<path d="M2225 2540 c3 -5 8 -10 11 -10 2 0 4 5 4 10 0 6 -5 10 -11 10 -5 0
-7 -4 -4 -10z"/>
<path d="M2290 2529 c0 -14 6 -31 12 -37 10 -10 10 -15 -2 -22 -17 -11 -9 -13
13 -4 13 4 13 11 5 37 -15 44 -28 56 -28 26z"/>
<path d="M3229 2528 c-7 -12 -19 -28 -28 -35 -9 -6 -14 -14 -11 -16 3 -3 12 0
20 7 19 14 43 56 37 63 -3 3 -11 -6 -18 -19z"/>
<path d="M1415 2530 c-3 -5 -1 -10 4 -10 6 0 11 5 11 10 0 6 -2 10 -4 10 -3 0
-8 -4 -11 -10z"/>
<path d="M1540 2524 c0 -8 5 -12 10 -9 6 4 8 11 5 16 -9 14 -15 11 -15 -7z"/>
<path d="M2993 2520 c-11 -16 -10 -18 2 -14 8 4 15 1 15 -5 0 -6 3 -11 8 -11
4 0 7 11 7 25 0 30 -16 33 -32 5z"/>
<path d="M3362 2525 c-13 -7 -19 -16 -14 -19 6 -3 14 -1 17 5 4 5 13 8 21 5 8
-3 14 1 14 9 0 18 -7 18 -38 0z"/>
<path d="M2860 2523 c0 -4 5 -15 10 -23 8 -13 10 -13 10 2 0 9 -4 20 -10 23
-5 3 -10 3 -10 -2z"/>
<path d="M3767 2504 c-10 -13 -13 -24 -8 -24 10 0 36 39 29 45 -2 2 -11 -8
-21 -21z"/>
<path d="M1616 2511 c-4 -7 1 -11 13 -11 10 0 21 -6 24 -12 4 -10 7 -10 18 -1
15 15 12 19 -22 28 -16 4 -30 2 -33 -4z"/>
<path d="M1835 2510 c-3 -5 -1 -10 4 -10 6 0 11 5 11 10 0 6 -2 10 -4 10 -3 0
-8 -4 -11 -10z"/>
<path d="M2106 2504 c-9 -9 -15 -19 -12 -21 3 -3 13 2 22 11 9 9 14 19 11 22
-2 3 -12 -3 -21 -12z"/>
<path d="M4270 2516 c0 -2 7 -9 15 -16 9 -7 15 -8 15 -2 0 5 -7 12 -15 16 -8
3 -15 4 -15 2z"/>
<path d="M2621 2494 c0 -11 3 -14 6 -6 3 7 2 16 -1 19 -3 4 -6 -2 -5 -13z"/>
<path d="M2680 2495 c-10 -12 -10 -18 0 -30 11 -13 8 -21 -15 -45 -16 -17 -36
-30 -44 -30 -14 0 -14 1 -1 10 12 8 11 10 -7 10 -24 0 -31 16 -11 22 9 3 9 6
0 12 -7 4 -14 -3 -18 -20 -4 -16 -2 -29 6 -34 9 -6 9 -9 -1 -16 -10 -6 -7 -10
11 -14 15 -3 27 -16 31 -30 l7 -25 1 25 c1 23 21 66 21 46 0 -17 29 29 30 47
0 10 8 17 20 17 18 0 47 36 37 47 -3 2 -8 -5 -12 -17 -10 -31 -40 -21 -38 13
2 31 0 33 -17 12z"/>
<path d="M3557 2496 c-3 -8 1 -17 9 -20 8 -3 14 -12 14 -21 0 -17 16 -20 25
-5 4 6 11 8 16 5 5 -4 9 -1 9 4 0 6 -7 11 -15 11 -8 0 -20 9 -27 20 -15 24
-24 25 -31 6z"/>
<path d="M3970 2493 c0 -13 5 -23 10 -23 13 0 13 11 0 30 -8 12 -10 11 -10 -7z"/>
<path d="M2037 2479 c-4 -14 -1 -27 6 -31 16 -11 -12 -30 -35 -24 -11 2 -18
-2 -18 -10 0 -8 -7 -14 -16 -14 -8 0 -13 -4 -10 -8 3 -5 -12 -19 -34 -31 -42
-23 -46 -54 -6 -49 11 1 26 -1 33 -5 12 -8 29 10 19 20 -3 4 -6 1 -6 -7 0 -10
-3 -10 -15 0 -13 11 -12 16 10 36 21 19 30 22 46 14 10 -6 19 -15 19 -20 0 -6
4 -10 9 -10 5 0 7 18 4 40 -5 35 -3 40 14 40 12 0 26 7 33 15 10 12 10 15 -4
15 -9 0 -16 4 -16 8 0 5 -6 16 -13 27 -13 17 -14 17 -20 -6z"/>
<path d="M1516 2464 c18 -26 28 -27 18 -1 -3 8 -12 18 -20 21 -11 4 -11 0 2
-20z"/>
<path d="M2111 2477 c-7 -9 -8 -23 -4 -35 8 -21 8 -21 19 3 14 29 3 53 -15 32z"/>
<path d="M2902 2471 l-33 -17 25 -12 c23 -10 26 -9 26 8 0 11 6 20 14 20 8 0
18 5 21 10 9 15 -16 11 -53 -9z"/>
<path d="M3350 2481 c0 -5 7 -11 14 -14 10 -4 13 -1 9 9 -6 15 -23 19 -23 5z"/>
<path d="M3880 2480 c0 -5 5 -10 10 -10 6 0 10 5 10 10 0 6 -4 10 -10 10 -5 0
-10 -4 -10 -10z"/>
<path d="M1860 2466 c0 -2 5 -17 10 -32 8 -19 7 -31 -2 -43 -7 -9 -8 -13 -4
-9 5 4 15 3 23 -3 9 -9 13 -8 13 0 0 6 -5 11 -12 11 -6 0 -4 6 6 13 25 18 18
61 -11 65 -13 2 -23 1 -23 -2z"/>
<path d="M3030 2455 c0 -8 -6 -15 -14 -15 -16 0 -29 -27 -20 -41 9 -15 24 -10
18 6 -6 13 6 20 29 16 4 0 7 8 7 18 0 11 6 22 13 24 6 3 2 6 -10 6 -14 1 -23
-5 -23 -14z"/>
<path d="M3273 2460 c9 -6 17 -20 17 -30 0 -11 6 -20 14 -20 9 0 12 8 8 25 -2
14 -8 25 -12 25 -5 0 -17 3 -27 6 -17 5 -17 5 0 -6z"/>
<path d="M3487 2449 c-4 -16 -3 -18 9 -8 16 13 19 29 5 29 -5 0 -11 -9 -14
-21z"/>
<path d="M3910 2464 c0 -3 7 -12 15 -20 13 -14 15 -13 15 5 0 12 -6 21 -15 21
-8 0 -15 -3 -15 -6z"/>
<path d="M1376 2444 c-4 -9 -4 -19 -1 -22 2 -3 7 3 11 12 4 9 4 19 1 22 -2 3
-7 -3 -11 -12z"/>
<path d="M1705 2450 c-3 -5 -12 -7 -20 -3 -9 3 -15 -1 -15 -11 0 -21 -9 -20
-26 2 -13 16 -14 16 -8 0 5 -13 1 -18 -14 -18 -11 0 -22 -7 -25 -15 -5 -11 -1
-12 18 -5 16 6 25 5 27 -2 3 -7 13 -3 26 10 12 12 22 18 22 12 0 -5 7 -10 16
-10 8 0 13 4 9 9 -8 14 15 25 27 13 6 -6 17 -8 24 -5 9 3 14 -2 14 -12 0 -9
-9 -19 -20 -22 -28 -8 -25 -28 5 -29 14 -1 25 2 25 8 0 5 13 7 30 3 23 -5 30
-3 30 9 0 9 -6 13 -13 10 -8 -3 -24 10 -38 30 -19 29 -31 36 -56 36 -17 0 -34
-4 -38 -10z"/>
<path d="M1460 2442 c0 -22 13 -42 26 -42 20 0 17 14 -6 35 -11 10 -20 13 -20
7z"/>
<path d="M2458 2422 c19 -19 52 -25 52 -11 0 11 -34 29 -54 29 -14 0 -13 -3 2
-18z"/>
<path d="M2736 2424 c-5 -14 -4 -15 8 -5 20 17 32 -5 14 -27 -12 -15 -11 -16
5 -3 21 17 22 37 1 45 -21 8 -21 8 -28 -10z"/>
<path d="M2810 2435 c0 -5 5 -17 10 -25 5 -8 10 -10 10 -5 0 6 -5 17 -10 25
-5 8 -10 11 -10 5z"/>
<path d="M3500 2420 c0 -5 5 -10 10 -10 6 0 10 5 10 10 0 6 -4 10 -10 10 -5 0
-10 -4 -10 -10z"/>
<path d="M3215 2411 c-3 -5 -1 -12 5 -16 5 -3 10 1 10 9 0 18 -6 21 -15 7z"/>
<path d="M3554 2404 c3 -9 6 -18 6 -20 0 -3 5 -2 10 1 16 10 12 35 -6 35 -11
0 -14 -5 -10 -16z"/>
<path d="M3347 2399 c7 -7 15 -10 18 -7 3 3 -2 9 -12 12 -14 6 -15 5 -6 -5z"/>
<path d="M1361 2384 c0 -11 3 -14 6 -6 3 7 2 16 -1 19 -3 4 -6 -2 -5 -13z"/>
<path d="M2150 2394 c-17 -5 -26 -84 -10 -84 12 0 23 37 15 50 -3 5 1 10 9 10
9 0 16 7 16 15 0 15 -3 16 -30 9z"/>
<path d="M2325 2390 c4 -6 11 -8 16 -5 14 9 11 15 -7 15 -8 0 -12 -5 -9 -10z"/>
<path d="M2375 2390 c-3 -5 -1 -10 4 -10 6 0 11 5 11 10 0 6 -2 10 -4 10 -3 0
-8 -4 -11 -10z"/>
<path d="M3136 2391 c-3 -5 0 -14 7 -19 10 -8 13 -6 14 9 2 19 -11 26 -21 10z"/>
<path d="M3850 2390 c0 -5 5 -10 11 -10 5 0 7 5 4 10 -3 6 -8 10 -11 10 -2 0
-4 -4 -4 -10z"/>
<path d="M1470 2379 c0 -5 5 -7 10 -4 6 3 10 8 10 11 0 2 -4 4 -10 4 -5 0 -10
-5 -10 -11z"/>
<path d="M3095 2380 c-3 -6 1 -7 9 -4 18 7 21 14 7 14 -6 0 -13 -4 -16 -10z"/>
<path d="M3434 2375 c23 -18 36 -19 36 -4 0 5 -4 7 -10 4 -5 -3 -10 -1 -10 4
0 6 -8 11 -17 11 -16 -1 -16 -2 1 -15z"/>
<path d="M1617 2373 c-5 -8 20 -50 26 -42 2 2 -2 15 -9 27 -6 13 -14 20 -17
15z"/>
<path d="M2190 2371 c0 -18 12 -41 21 -41 15 0 10 37 -6 44 -8 3 -15 1 -15 -3z"/>
<path d="M2780 2368 c0 -4 11 -8 24 -8 13 0 27 -6 30 -12 3 -7 5 -4 3 6 -1 13
-10 20 -29 20 -16 1 -28 -2 -28 -6z"/>
<path d="M3891 2358 c-1 -16 4 -28 9 -28 12 0 12 8 0 35 -8 18 -9 17 -9 -7z"/>
<path d="M2320 2360 c0 -5 5 -10 10 -10 6 0 10 5 10 10 0 6 -4 10 -10 10 -5 0
-10 -4 -10 -10z"/>
<path d="M3925 2360 c3 -5 8 -10 11 -10 2 0 4 5 4 10 0 6 -5 10 -11 10 -5 0
-7 -4 -4 -10z"/>
<path d="M1450 2356 c0 -2 7 -9 15 -16 13 -11 14 -10 9 4 -5 14 -24 23 -24 12z"/>
<path d="M2495 2351 c-3 -6 3 -15 14 -20 16 -9 18 -8 14 9 -6 21 -18 26 -28
11z"/>
<path d="M3065 2349 c-4 -5 0 -18 9 -28 18 -19 21 -41 7 -41 -5 0 -12 -9 -16
-19 -3 -10 -15 -21 -26 -24 -12 -3 -18 -10 -14 -17 5 -8 11 -8 21 1 8 6 14 8
14 3 0 -5 5 -2 10 6 7 11 10 11 10 2 0 -7 5 -10 10 -7 7 5 8 11 1 18 -6 8 -5
18 4 31 11 15 12 23 3 40 -7 11 -11 27 -10 34 3 15 -14 16 -23 1z"/>
<path d="M3370 2350 c0 -5 5 -10 10 -10 6 0 10 5 10 10 0 6 -4 10 -10 10 -5 0
-10 -4 -10 -10z"/>
<path d="M3500 2356 c0 -2 7 -9 15 -16 12 -10 15 -10 15 4 0 9 -7 16 -15 16
-8 0 -15 -2 -15 -4z"/>
<path d="M1798 2344 c-5 -4 -8 -19 -8 -33 0 -18 3 -22 11 -14 6 6 9 21 7 33
-1 12 -6 18 -10 14z"/>
<path d="M1842 2341 c4 -13 18 -16 19 -4 0 4 -5 9 -11 12 -7 2 -11 -2 -8 -8z"/>
<path d="M1520 2330 c0 -5 5 -10 10 -10 6 0 10 5 10 10 0 6 -4 10 -10 10 -5 0
-10 -4 -10 -10z"/>
<path d="M2388 2333 c7 -3 16 -2 19 1 4 3 -2 6 -13 5 -11 0 -14 -3 -6 -6z"/>
<path d="M2435 2330 c-3 -5 -4 -14 -1 -19 3 -4 -1 -17 -9 -27 -20 -26 -19 -31
8 -39 13 -4 17 -8 10 -12 -7 -2 -13 -9 -13 -15 0 -15 28 -39 42 -36 8 2 12 -5
11 -20 -3 -19 1 -22 24 -20 21 2 30 -3 38 -19 11 -26 40 -30 49 -7 9 23 8 24
-18 24 -14 0 -28 5 -31 11 -4 5 -18 14 -31 19 -29 11 -33 34 -4 25 12 -4 20
-2 20 5 0 6 -4 9 -9 6 -5 -3 -12 1 -15 10 -4 10 -13 13 -25 9 -14 -4 -20 0
-25 19 -3 13 -3 34 2 45 7 19 9 19 35 6 39 -20 36 5 -4 28 -35 20 -45 21 -54
7z"/>
<path d="M2734 2330 c-31 -12 -37 -37 -11 -44 12 -3 24 -1 25 4 2 6 10 10 17
10 8 0 11 7 8 20 -6 22 -8 23 -39 10z"/>
<path d="M2863 2310 c0 -24 3 -26 46 -26 42 1 46 -1 43 -21 -2 -16 2 -23 12
-23 11 0 16 10 16 33 0 28 -3 32 -28 33 -16 1 -42 8 -59 16 -29 15 -30 14 -30
-12z"/>
<path d="M4330 2325 c0 -8 0 -18 -1 -22 0 -4 4 -9 10 -11 6 -2 11 8 11 22 0
14 -4 26 -10 26 -5 0 -10 -7 -10 -15z"/>
<path d="M2037 2314 c3 -9 -1 -14 -12 -14 -9 0 -14 -4 -10 -9 3 -6 14 -9 25
-8 23 1 27 32 6 40 -10 4 -13 1 -9 -9z"/>
<path d="M3914 2299 c0 -10 4 -19 8 -19 4 0 8 6 8 14 0 8 -4 17 -8 20 -4 2 -8
-4 -8 -15z"/>
<path d="M1844 2277 c15 -19 26 -42 26 -52 0 -13 5 -16 25 -11 27 7 35 -8 9
-18 -27 -10 -5 -25 36 -23 29 1 42 7 46 20 5 15 12 17 32 12 40 -10 54 -25 47
-52 -3 -13 -3 -40 1 -59 5 -27 11 -34 29 -34 15 0 35 -14 54 -37 22 -26 31
-32 31 -20 0 26 -4 32 -18 31 -7 -1 -11 3 -9 10 2 6 10 12 18 12 8 1 19 3 24
4 6 1 15 2 20 0 6 -1 4 5 -3 12 -7 7 -18 13 -25 13 -7 0 -11 12 -10 28 1 15
-2 27 -6 27 -18 0 -33 -31 -28 -57 4 -16 4 -22 1 -15 -3 6 -14 12 -24 12 -24
0 -56 42 -38 50 20 8 15 40 -8 58 -11 10 -23 25 -27 35 -7 19 -27 23 -27 6 0
-6 -6 -9 -13 -6 -8 3 -20 -3 -28 -14 -15 -22 -49 -26 -49 -6 0 20 21 36 39 30
9 -3 7 1 -6 11 -15 11 -28 13 -45 7 -19 -7 -28 -3 -55 25 -41 44 -51 44 -19 1z"/>
<path d="M2285 2301 c-3 -5 -1 -12 4 -15 5 -3 11 1 15 9 6 16 -9 21 -19 6z"/>
<path d="M3784 2283 c4 -37 25 -70 48 -76 14 -4 18 1 18 20 0 19 -4 24 -17 19
-9 -4 -20 -1 -25 6 -13 21 -9 28 14 28 26 0 14 14 -19 25 -20 6 -22 3 -19 -22z"/>
<path d="M1737 2279 c3 -10 11 -15 19 -12 20 7 17 20 -5 26 -14 3 -17 0 -14
-14z"/>
<path d="M3645 2290 c3 -5 8 -10 11 -10 2 0 4 5 4 10 0 6 -5 10 -11 10 -5 0
-7 -4 -4 -10z"/>
<path d="M1954 2279 c-9 -15 6 -29 32 -29 14 0 24 6 24 14 0 15 -48 28 -56 15z"/>
<path d="M4025 2280 c3 -5 10 -10 16 -10 5 0 9 5 9 10 0 6 -7 10 -16 10 -8 0
-12 -4 -9 -10z"/>
<path d="M1650 2260 c0 -13 5 -20 13 -17 6 2 12 10 12 17 0 7 -6 15 -12 18 -8
2 -13 -5 -13 -18z"/>
<path d="M2165 2270 c3 -5 -2 -10 -12 -11 -15 0 -14 -2 5 -11 12 -6 22 -20 22
-30 0 -11 4 -17 9 -14 4 3 7 16 6 28 -1 13 -3 29 -4 36 0 6 -8 12 -17 12 -8 0
-12 -4 -9 -10z"/>
<path d="M2221 2254 c0 -11 3 -14 6 -6 3 7 2 16 -1 19 -3 4 -6 -2 -5 -13z"/>
<path d="M2600 2259 c0 -7 -10 -9 -25 -5 -14 4 -25 2 -25 -3 0 -17 15 -20 55
-11 22 5 41 8 42 6 2 -2 -6 -13 -17 -26 -21 -25 -26 -50 -10 -50 6 0 10 9 10
20 0 12 13 28 31 39 l30 19 -32 11 c-41 14 -59 14 -59 0z"/>
<path d="M2735 2252 c5 -16 1 -28 -12 -37 -13 -10 -14 -14 -4 -15 8 0 20 -8
27 -17 11 -16 13 -13 9 21 -3 21 -10 45 -16 55 -8 13 -9 12 -4 -7z"/>
<path d="M1470 2250 c0 -5 7 -10 15 -10 8 0 15 5 15 10 0 6 -7 10 -15 10 -8 0
-15 -4 -15 -10z"/>
<path d="M1560 2250 c0 -5 5 -10 11 -10 5 0 7 5 4 10 -3 6 -8 10 -11 10 -2 0
-4 -4 -4 -10z"/>
<path d="M2080 2252 c0 -4 10 -12 23 -17 12 -6 21 -17 19 -27 -1 -9 3 -20 9
-24 9 -5 10 -2 6 9 -3 9 -2 19 3 22 18 11 10 23 -21 34 -38 13 -39 13 -39 3z"/>
<path d="M2816 2248 c3 -4 9 -8 15 -8 5 0 9 4 9 8 0 5 -7 9 -15 9 -8 0 -12 -4
-9 -9z"/>
<path d="M2867 2240 c-18 -22 -22 -46 -8 -54 10 -7 35 47 29 64 -2 6 -11 1
-21 -10z"/>
<path d="M3305 2214 c8 -20 12 -41 8 -47 -3 -6 -1 -7 5 -3 7 4 11 25 10 47 -1
31 -5 39 -20 39 -17 0 -17 -2 -3 -36z"/>
<path d="M1372 2220 c0 -14 2 -19 5 -12 2 6 2 18 0 25 -3 6 -5 1 -5 -13z"/>
<path d="M2246 2216 c3 -8 -2 -16 -13 -19 -12 -3 -13 -5 -3 -6 22 -1 44 15 36
28 -10 16 -26 14 -20 -3z"/>
<path d="M2300 2211 c0 -11 -4 -23 -10 -26 -16 -10 -12 -25 5 -19 8 4 15 17
15 30 0 28 6 30 26 9 9 -8 21 -15 27 -15 17 1 -32 40 -49 40 -8 0 -14 -9 -14
-19z"/>
<path d="M3146 2205 c-3 -8 -12 -15 -20 -15 -9 0 -13 -6 -10 -14 8 -20 53 3
51 26 -2 22 -13 23 -21 3z"/>
<path d="M2951 2203 c0 -4 4 -17 9 -28 8 -19 9 -19 9 2 1 12 -3 25 -9 28 -5 3
-10 3 -9 -2z"/>
<path d="M3420 2200 c0 -5 5 -10 10 -10 6 0 10 5 10 10 0 6 -4 10 -10 10 -5 0
-10 -4 -10 -10z"/>
<path d="M1788 2182 c-19 -4 -24 -17 -9 -26 5 -3 14 1 21 9 15 18 12 23 -12
17z"/>
<path d="M2379 2172 c-41 -44 -70 -92 -63 -104 4 -7 3 -9 -2 -5 -5 5 -14 -7
-20 -25 -6 -18 -16 -33 -22 -33 -5 0 -14 -3 -18 -7 -4 -5 3 -8 15 -8 14 0 25
-7 28 -19 5 -19 53 -28 53 -10 0 5 -6 9 -14 9 -8 0 -17 7 -20 16 -9 23 -7 54
2 54 5 0 14 12 20 26 7 14 16 23 21 20 9 -6 24 30 22 51 -1 6 8 18 19 26 11 7
17 17 13 20 -9 10 -16 8 -34 -11z"/>
<path d="M2880 2181 c0 -6 5 -13 10 -16 6 -3 10 1 10 9 0 9 -4 16 -10 16 -5 0
-10 -4 -10 -9z"/>
<path d="M3723 2173 c-3 -10 -8 -21 -10 -25 -2 -4 3 -5 11 -2 9 3 16 15 16 25
0 24 -9 25 -17 2z"/>
<path d="M3775 2181 c-6 -11 9 -23 19 -14 9 9 7 23 -3 23 -6 0 -12 -4 -16 -9z"/>
<path d="M4310 2176 c0 -9 5 -16 10 -16 6 0 10 4 10 9 0 6 -4 13 -10 16 -5 3
-10 -1 -10 -9z"/>
<path d="M2803 2174 c-7 -3 -9 -12 -6 -19 4 -11 10 -12 24 -4 29 15 13 35 -18
23z"/>
<path d="M2196 2138 c-19 -36 -20 -41 -6 -33 15 10 42 65 31 65 -5 0 -17 -14
-25 -32z"/>
<path d="M3045 2160 c3 -5 8 -10 11 -10 2 0 4 5 4 10 0 6 -5 10 -11 10 -5 0
-7 -4 -4 -10z"/>
<path d="M3165 2160 c4 -6 11 -8 16 -5 14 9 11 15 -7 15 -8 0 -12 -5 -9 -10z"/>
<path d="M3480 2150 c-20 -20 -28 -56 -11 -45 5 3 12 -3 15 -12 3 -10 4 -6 2
10 -3 23 1 27 20 27 13 0 24 4 24 10 0 5 -8 6 -17 3 -12 -5 -15 -2 -10 10 8
22 1 21 -23 -3z"/>
<path d="M1990 2146 c0 -15 -27 -29 -40 -21 -5 3 -16 -5 -25 -18 -11 -18 -13
-30 -6 -48 9 -23 10 -23 10 7 1 37 39 61 71 44 28 -15 37 -12 14 5 -18 14 -18
14 0 15 15 0 16 3 6 15 -16 19 -30 19 -30 1z"/>
<path d="M2712 2137 c-6 -7 -10 -23 -9 -35 1 -20 8 -24 9 -5 0 4 4 18 9 31 10
25 7 28 -9 9z"/>
<path d="M3283 2138 c2 -7 -2 -28 -9 -47 -18 -44 -17 -51 5 -24 10 12 21 19
25 16 3 -4 6 3 6 15 0 11 5 24 10 27 19 12 10 25 -16 25 -16 0 -24 -5 -21 -12z"/>
<path d="M1770 2125 c-7 -9 -11 -17 -9 -20 3 -2 10 5 17 15 14 24 10 26 -8 5z"/>
<path d="M2451 2128 c0 -7 4 -21 7 -31 7 -16 8 -16 23 1 15 17 15 20 -2 30
-24 15 -29 15 -28 0z"/>
<path d="M3010 2130 c0 -5 5 -10 11 -10 5 0 7 5 4 10 -3 6 -8 10 -11 10 -2 0
-4 -4 -4 -10z"/>
<path d="M3070 2130 c0 -5 5 -10 10 -10 6 0 10 -12 10 -27 0 -14 3 -23 7 -20
3 4 16 -1 27 -10 19 -17 20 -17 7 -1 -8 11 -11 28 -6 45 5 23 4 25 -9 14 -13
-11 -17 -10 -22 3 -7 18 -24 22 -24 6z"/>
<path d="M3150 2136 c0 -2 7 -6 15 -10 8 -3 15 -1 15 4 0 6 -7 10 -15 10 -8 0
-15 -2 -15 -4z"/>
<path d="M1855 2116 c-3 -9 -7 -23 -10 -31 -2 -8 0 -17 5 -20 4 -3 11 9 15 26
7 32 -1 53 -10 25z"/>
<path d="M2660 2120 c0 -5 7 -10 15 -10 8 0 15 5 15 10 0 6 -7 10 -15 10 -8 0
-15 -4 -15 -10z"/>
<path d="M4180 2120 c0 -5 7 -10 16 -10 8 0 12 5 9 10 -3 6 -10 10 -16 10 -5
0 -9 -4 -9 -10z"/>
<path d="M1455 2110 c-3 -5 1 -10 9 -10 8 0 18 5 21 10 3 6 -1 10 -9 10 -8 0
-18 -4 -21 -10z"/>
<path d="M2798 2098 c-24 -24 -23 -28 6 -28 14 0 28 -4 31 -10 10 -16 35 -11
35 7 0 9 -3 14 -6 10 -3 -3 -16 4 -28 17 -20 21 -22 22 -38 4z"/>
<path d="M4095 2110 c3 -5 10 -10 16 -10 5 0 9 5 9 10 0 6 -7 10 -16 10 -8 0
-12 -4 -9 -10z"/>
<path d="M3886 2083 c-6 -14 -5 -15 5 -6 7 7 10 15 7 18 -3 3 -9 -2 -12 -12z"/>
<path d="M1996 2074 c-3 -9 -6 -23 -6 -32 0 -13 3 -12 15 4 16 21 19 44 6 44
-5 0 -12 -7 -15 -16z"/>
<path d="M2510 2076 c0 -15 47 -39 55 -27 5 10 -11 25 -37 34 -11 4 -18 1 -18
-7z"/>
<path d="M2655 2079 c-12 -19 5 -23 22 -6 16 16 16 17 1 17 -9 0 -20 -5 -23
-11z"/>
<path d="M3024 2068 c-4 -6 1 -15 10 -20 21 -12 21 -36 -1 -60 -15 -17 -15
-18 5 -18 17 0 22 6 22 28 0 15 3 37 6 48 4 16 0 23 -15 27 -12 3 -24 0 -27
-5z"/>
<path d="M2255 2060 c-3 -6 1 -13 10 -16 19 -8 30 0 20 15 -8 14 -22 14 -30 1z"/>
<path d="M2455 2060 c3 -5 10 -10 16 -10 5 0 9 5 9 10 0 6 -7 10 -16 10 -8 0
-12 -4 -9 -10z"/>
<path d="M3650 2056 c0 -9 5 -16 10 -16 6 0 10 4 10 9 0 6 -4 13 -10 16 -5 3
-10 -1 -10 -9z"/>
<path d="M2695 2050 c3 -5 8 -10 11 -10 2 0 4 5 4 10 0 6 -5 10 -11 10 -5 0
-7 -4 -4 -10z"/>
<path d="M3080 2050 c0 -5 5 -10 10 -10 6 0 10 5 10 10 0 6 -4 10 -10 10 -5 0
-10 -4 -10 -10z"/>
<path d="M3405 2051 c-6 -11 9 -23 19 -14 9 9 7 23 -3 23 -6 0 -12 -4 -16 -9z"/>
<path d="M2420 2035 c-7 -8 -21 -15 -32 -15 -10 0 -16 -4 -13 -10 7 -12 65 15
65 30 0 14 -6 12 -20 -5z"/>
<path d="M2630 2035 c0 -8 5 -15 10 -15 6 0 10 7 10 15 0 8 -4 15 -10 15 -5 0
-10 -7 -10 -15z"/>
<path d="M2730 2028 c0 -19 2 -20 10 -8 13 19 13 30 0 30 -5 0 -10 -10 -10
-22z"/>
<path d="M2887 2044 c-4 -4 -4 -10 -1 -15 6 -10 34 0 34 12 0 10 -24 12 -33 3z"/>
<path d="M1940 2030 c0 -5 4 -10 9 -10 6 0 13 5 16 10 3 6 -1 10 -9 10 -9 0
-16 -4 -16 -10z"/>
<path d="M3141 1998 c-1 -27 -7 -40 -21 -48 -11 -6 -18 -15 -15 -21 4 -5 10
-7 15 -4 4 3 11 -1 13 -7 4 -10 6 -10 6 0 1 6 10 12 21 12 16 0 18 4 11 18 -5
9 -14 33 -19 52 l-10 35 -1 -37z"/>
<path d="M3320 2022 c0 -6 8 -16 18 -21 20 -11 74 -3 66 10 -3 5 -14 4 -25 -2
-16 -8 -25 -7 -40 7 -10 9 -19 12 -19 6z"/>
<path d="M3540 2010 c0 -19 3 -21 12 -12 9 9 9 15 0 24 -9 9 -12 7 -12 -12z"/>
<path d="M1880 2009 c0 -5 5 -7 10 -4 6 3 10 8 10 11 0 2 -4 4 -10 4 -5 0 -10
-5 -10 -11z"/>
<path d="M2030 1996 c0 -14 -7 -32 -16 -40 -8 -9 -14 -22 -12 -28 3 -7 13 2
23 19 10 17 28 35 39 38 18 6 19 8 4 12 -10 2 -18 9 -18 14 0 5 -4 9 -10 9 -5
0 -10 -11 -10 -24z"/>
<path d="M3915 2011 c-3 -5 -1 -12 5 -16 5 -3 10 1 10 9 0 18 -6 21 -15 7z"/>
<path d="M4010 2010 c0 -6 7 -10 15 -10 8 0 15 2 15 4 0 2 -7 6 -15 10 -8 3
-15 1 -15 -4z"/>
<path d="M2610 1999 c0 -5 5 -7 10 -4 6 3 10 8 10 11 0 2 -4 4 -10 4 -5 0 -10
-5 -10 -11z"/>
<path d="M2670 1989 c0 -11 4 -18 10 -14 5 3 7 12 3 20 -7 21 -13 19 -13 -6z"/>
<path d="M2735 1990 c3 -5 13 -10 21 -10 8 0 12 5 9 10 -3 6 -13 10 -21 10 -8
0 -12 -4 -9 -10z"/>
<path d="M2925 1990 c-3 -5 3 -10 14 -10 12 0 21 5 21 10 0 6 -6 10 -14 10 -8
0 -18 -4 -21 -10z"/>
<path d="M2207 1969 c-3 -13 -1 -19 6 -16 15 5 22 37 9 37 -5 0 -12 -9 -15
-21z"/>
<path d="M2845 1980 c3 -5 10 -10 16 -10 5 0 9 5 9 10 0 6 -7 10 -16 10 -8 0
-12 -4 -9 -10z"/>
<path d="M4040 1980 c0 -5 7 -10 16 -10 8 0 12 5 9 10 -3 6 -10 10 -16 10 -5
0 -9 -4 -9 -10z"/>
<path d="M4130 1970 c0 -5 5 -10 11 -10 5 0 7 5 4 10 -3 6 -8 10 -11 10 -2 0
-4 -4 -4 -10z"/>
<path d="M1745 1960 c3 -5 8 -10 11 -10 2 0 4 5 4 10 0 6 -5 10 -11 10 -5 0
-7 -4 -4 -10z"/>
<path d="M2580 1960 c0 -5 5 -10 10 -10 6 0 10 5 10 10 0 6 -4 10 -10 10 -5 0
-10 -4 -10 -10z"/>
<path d="M2661 1951 c-9 -6 -10 -11 -2 -15 6 -4 11 -27 11 -52 0 -32 4 -44 15
-44 17 0 20 16 5 25 -15 10 -12 23 8 28 15 4 15 5 -2 6 -13 1 -17 7 -13 20 6
25 -5 42 -22 32z"/>
<path d="M2930 1946 c0 -9 5 -16 10 -16 6 0 10 4 10 9 0 6 -4 13 -10 16 -5 3
-10 -1 -10 -9z"/>
<path d="M2526 1935 c-22 -17 -29 -42 -15 -51 16 -9 33 7 18 17 -9 6 -2 7 17
3 19 -4 34 -1 38 5 4 6 0 11 -8 11 -9 0 -16 7 -16 15 0 19 -9 19 -34 0z"/>
<path d="M2970 1936 c0 -8 7 -17 16 -20 25 -9 26 -2 4 17 -16 13 -20 14 -20 3z"/>
<path d="M1561 1924 c0 -11 3 -14 6 -6 3 7 2 16 -1 19 -3 4 -6 -2 -5 -13z"/>
<path d="M2220 1930 c0 -5 6 -10 14 -10 8 0 18 5 21 10 3 6 -3 10 -14 10 -12
0 -21 -4 -21 -10z"/>
<path d="M2350 1931 c0 -6 5 -13 10 -16 6 -3 10 1 10 9 0 9 -4 16 -10 16 -5 0
-10 -4 -10 -9z"/>
<path d="M2438 1933 c7 -3 16 -2 19 1 4 3 -2 6 -13 5 -11 0 -14 -3 -6 -6z"/>
<path d="M2280 1901 c0 -5 -3 -18 -6 -28 -5 -16 -4 -16 10 1 18 23 20 36 6 36
-5 0 -10 -4 -10 -9z"/>
<path d="M2398 1885 c2 -14 6 -25 8 -25 2 0 4 11 4 25 0 14 -4 25 -9 25 -4 0
-6 -11 -3 -25z"/>
<path d="M2925 1901 c-17 -7 -16 -9 11 -13 24 -3 31 -1 27 9 -6 15 -9 15 -38
4z"/>
<path d="M3270 1900 c0 -5 5 -10 10 -10 6 0 10 5 10 10 0 6 -4 10 -10 10 -5 0
-10 -4 -10 -10z"/>
<path d="M3065 1890 c-19 -8 -19 -9 3 -9 12 -1 22 4 22 9 0 6 -1 10 -2 9 -2 0
-12 -4 -23 -9z"/>
<path d="M2040 1880 c0 -5 5 -10 10 -10 6 0 10 5 10 10 0 6 -4 10 -10 10 -5 0
-10 -4 -10 -10z"/>
<path d="M3022 1859 c2 -7 10 -15 17 -17 8 -3 12 1 9 9 -2 7 -10 15 -17 17 -8
3 -12 -1 -9 -9z"/>
<path d="M2493 1841 c1 -15 4 -17 14 -9 17 14 16 28 -1 28 -8 0 -14 -9 -13
-19z"/>
<path d="M3686 1835 c-3 -9 0 -15 9 -15 8 0 15 7 15 15 0 8 -4 15 -9 15 -5 0
-11 -7 -15 -15z"/>
<path d="M3220 1830 c0 -5 5 -10 11 -10 5 0 7 5 4 10 -3 6 -8 10 -11 10 -2 0
-4 -4 -4 -10z"/>
<path d="M2780 1814 c0 -8 5 -12 10 -9 6 3 10 10 10 16 0 5 -4 9 -10 9 -5 0
-10 -7 -10 -16z"/>
<path d="M2650 1810 c0 -5 5 -10 10 -10 6 0 10 5 10 10 0 6 -4 10 -10 10 -5 0
-10 -4 -10 -10z"/>
<path d="M2474 1784 c3 -9 6 -18 6 -21 0 -3 7 0 15 7 13 11 13 15 3 21 -21 13
-31 10 -24 -7z"/>
<path d="M2881 1797 c2 -1 13 -9 24 -17 19 -14 19 -14 6 3 -7 9 -18 17 -24 17
-6 0 -8 -1 -6 -3z"/>
<path d="M3290 1785 c0 -8 7 -15 15 -15 9 0 12 6 9 15 -4 8 -10 15 -15 15 -5
0 -9 -7 -9 -15z"/>
<path d="M2756 1762 c-3 -5 1 -9 9 -9 8 0 15 4 15 9 0 4 -4 8 -9 8 -6 0 -12
-4 -15 -8z"/>
<path d="M2555 1750 c3 -5 8 -10 11 -10 2 0 4 5 4 10 0 6 -5 10 -11 10 -5 0
-7 -4 -4 -10z"/>
<path d="M3060 1749 c0 -5 5 -7 10 -4 6 3 10 8 10 11 0 2 -4 4 -10 4 -5 0 -10
-5 -10 -11z"/>
<path d="M2470 1735 c0 -9 5 -15 11 -13 6 2 11 8 11 13 0 5 -5 11 -11 13 -6 2
-11 -4 -11 -13z"/>
<path d="M3041 1714 c0 -11 3 -14 6 -6 3 7 2 16 -1 19 -3 4 -6 -2 -5 -13z"/>
<path d="M3170 1700 c-12 -8 -11 -10 8 -10 12 0 22 5 22 10 0 13 -11 13 -30 0z"/>
</g>
</svg>
